<svg xmlns="http://www.w3.org/2000/svg" xmlns:xlink="http://www.w3.org/1999/xlink" width="299.87" height="228.47" viewBox="0 0 299.87 228.47">
  <defs>
    <style>
      .cls-1, .cls-91 {
        fill: none;
      }

      .cls-2 {
        isolation: isolate;
      }

      .cls-3 {
        clip-path: url(#clip-path);
      }

      .cls-4 {
        fill: #7e7e7e;
      }

      .cls-5 {
        fill: #797979;
      }

      .cls-6 {
        fill: #7c7c7c;
      }

      .cls-7 {
        fill: #2e88a4;
      }

      .cls-8 {
        fill: #f2f2f2;
      }

      .cls-9 {
        fill: #184654;
      }

      .cls-10 {
        fill: #174452;
      }

      .cls-11 {
        fill: #1b1b1b;
      }

      .cls-12 {
        fill: #353535;
      }

      .cls-13 {
        fill: #807851;
      }

      .cls-14 {
        fill: #ffefa1;
      }

      .cls-15 {
        fill: #837b53;
      }

      .cls-16 {
        clip-path: url(#clip-path-2);
      }

      .cls-17 {
        clip-path: url(#clip-path-3);
      }

      .cls-18 {
        clip-path: url(#clip-path-4);
      }

      .cls-19 {
        fill: #696969;
      }

      .cls-20 {
        fill: #9a9a9a;
      }

      .cls-21 {
        clip-path: url(#clip-path-5);
      }

      .cls-22 {
        fill: #757575;
      }

      .cls-23 {
        fill: #7d7d7d;
      }

      .cls-24 {
        fill: #818181;
      }

      .cls-25 {
        fill: #858585;
      }

      .cls-26 {
        fill: #898989;
      }

      .cls-27 {
        fill: #8d8d8d;
      }

      .cls-28 {
        fill: #919191;
      }

      .cls-29 {
        fill: #959595;
      }

      .cls-30 {
        fill: #999;
      }

      .cls-31 {
        fill: #9d9d9d;
      }

      .cls-32 {
        fill: #a1a1a1;
      }

      .cls-33 {
        fill: #a5a5a5;
      }

      .cls-34 {
        fill: #717171;
      }

      .cls-35 {
        fill: #6d6d6d;
      }

      .cls-36 {
        clip-path: url(#clip-path-6);
      }

      .cls-37 {
        fill: #a9a9a9;
      }

      .cls-38 {
        fill: #adadad;
      }

      .cls-39 {
        fill: #b1b1b1;
      }

      .cls-40 {
        fill: #b5b5b5;
      }

      .cls-41 {
        fill: #b9b9b9;
      }

      .cls-42 {
        fill: #bdbdbd;
      }

      .cls-43 {
        fill: #494949;
      }

      .cls-44 {
        clip-path: url(#clip-path-7);
      }

      .cls-45 {
        fill: #373737;
      }

      .cls-46 {
        fill: #383838;
      }

      .cls-47 {
        fill: #3a3a3a;
      }

      .cls-48 {
        fill: #3c3c3c;
      }

      .cls-49 {
        fill: #3e3e3e;
      }

      .cls-50 {
        fill: #404040;
      }

      .cls-51 {
        fill: #424242;
      }

      .cls-52 {
        fill: #444;
      }

      .cls-53 {
        fill: #464646;
      }

      .cls-54 {
        fill: #474747;
      }

      .cls-55 {
        fill: #4b4b4b;
      }

      .cls-56 {
        fill: #333;
      }

      .cls-57 {
        fill: #313131;
      }

      .cls-58 {
        clip-path: url(#clip-path-8);
      }

      .cls-59 {
        fill: #4d4d4d;
      }

      .cls-60 {
        fill: #4f4f4f;
      }

      .cls-61 {
        fill: #7a7a7a;
      }

      .cls-62 {
        fill: #929292;
      }

      .cls-63 {
        fill: #7b7b7b;
      }

      .cls-64 {
        fill: #e3e3e3;
      }

      .cls-65 {
        clip-path: url(#clip-path-9);
      }

      .cls-66 {
        fill: #d3cb94;
      }

      .cls-67 {
        fill: #d0c992;
      }

      .cls-68 {
        clip-path: url(#clip-path-10);
      }

      .cls-69 {
        fill: #cec791;
      }

      .cls-70 {
        fill: #ccc48f;
      }

      .cls-71 {
        fill: #c9c28d;
      }

      .cls-72 {
        fill: #c7c08b;
      }

      .cls-73 {
        fill: #c4bd8a;
      }

      .cls-74 {
        clip-path: url(#clip-path-11);
      }

      .cls-75 {
        clip-path: url(#clip-path-12);
      }

      .cls-76 {
        fill: #d0d0d0;
      }

      .cls-77 {
        fill: #d3d3d3;
      }

      .cls-78 {
        fill: #cecece;
      }

      .cls-79 {
        fill: #ccc;
      }

      .cls-80 {
        fill: #c9c9c9;
      }

      .cls-81 {
        fill: #c7c7c7;
      }

      .cls-82 {
        clip-path: url(#clip-path-13);
      }

      .cls-83 {
        fill: #c4c4c4;
      }

      .cls-84 {
        fill: #f3f3f3;
      }

      .cls-85 {
        clip-path: url(#clip-path-14);
      }

      .cls-86 {
        fill: #f3ebab;
      }

      .cls-87 {
        clip-path: url(#clip-path-15);
      }

      .cls-88 {
        opacity: 0.15;
        fill: url(#radial-gradient);
      }

      .cls-88, .cls-89, .cls-90, .cls-91 {
        mix-blend-mode: screen;
      }

      .cls-89 {
        opacity: 0.5;
        fill: url(#radial-gradient-2);
      }

      .cls-90 {
        fill: url(#radial-gradient-3);
      }

      .cls-91 {
        stroke: #fff;
        stroke-miterlimit: 10;
        stroke-width: 2px;
        opacity: 0.03;
      }
    </style>
    <clipPath id="clip-path" transform="translate(-183.13 -99)">
      <path class="cls-1" d="M184.2,320.27l-1.06-17.36c0-.17,0-.33,0-.5l1.05,17.37C184.18,319.94,184.19,320.11,184.2,320.27Z"/>
    </clipPath>
    <clipPath id="clip-path-2" transform="translate(-183.13 -99)">
      <path class="cls-1" d="M454.78,161.33l1.05,17.36a11.73,11.73,0,0,0-11.92-10.8l-1.06-17.36A11.75,11.75,0,0,1,454.78,161.33Z"/>
    </clipPath>
    <clipPath id="clip-path-3" transform="translate(-183.13 -99)">
      <path class="cls-1" d="M184.91,175.59l-1.06-17.37a7.89,7.89,0,0,1,8-7.69l1.05,17.36A7.9,7.9,0,0,0,184.91,175.59Z"/>
    </clipPath>
    <clipPath id="clip-path-4" transform="translate(-183.13 -99)">
      <path class="cls-1" d="M242.53,165l-2.88.91a20.72,20.72,0,0,1-3.49.76c-5.4.76-11.7.06-15.65-1.57l-.28-.11-.14-.06-.28-.11-.14-.06-.28-.12-.14-.05-.28-.12-.28-.11-.14-.06-.28-.12L218,164l-.14-.06-.14-.06c5.12,2.12,13.29,3,20.28,2A28,28,0,0,0,242.53,165Z"/>
    </clipPath>
    <clipPath id="clip-path-5" transform="translate(-183.13 -99)">
      <path class="cls-1" d="M248.18,151.76l-.38,8.94c-.1,2.31-3.69,4.38-9.8,5.24-8.67,1.22-19.15-.47-23.4-3.76a3.72,3.72,0,0,1-1.78-2.94l.38-8.94a3.72,3.72,0,0,0,1.78,2.94c4.25,3.29,14.72,5,23.4,3.76C244.49,156.14,248.08,154.07,248.18,151.76Z"/>
    </clipPath>
    <clipPath id="clip-path-6" transform="translate(-183.13 -99)">
      <path class="cls-1" d="M240.49,146l2.79,1.15a13.49,13.49,0,0,1,3.11,1.72c4.25,3.3.65,7-8,8.18s-19.15-.47-23.4-3.76c-3.4-2.65-1.77-5.52,3.49-7.19h0l.29-.09.14,0,.29-.1.14,0,.29-.09.15-.05.28-.09.29-.09.15-.05.28-.09.29-.09.15,0,.14,0c-4,1.28-5.32,3.5-2.69,5.54,3.27,2.54,11.36,3.84,18.05,2.9s9.46-3.76,6.18-6.3A10,10,0,0,0,240.49,146Z"/>
    </clipPath>
    <clipPath id="clip-path-7" transform="translate(-183.13 -99)">
      <path class="cls-1" d="M246.09,146l-.24,3.82c-.13,2-3.23,3.75-8.48,4.4-7.45.91-16.4-.74-20-3.69a3.26,3.26,0,0,1-1.48-2.62l.24-3.81a3.29,3.29,0,0,0,1.48,2.61c3.58,2.95,12.53,4.61,20,3.69C242.86,149.8,246,148.05,246.09,146Z"/>
    </clipPath>
    <clipPath id="clip-path-8" transform="translate(-183.13 -99)">
      <path class="cls-1" d="M226.42,140.29l-1.79-.55c7.45-.91,16.4.74,20,3.7s.44,6.09-7,7-16.41-.74-20-3.69-.45-6.09,7-7l1.79.55c-5.46.67-7.77,3-5.13,5.14s9.19,3.38,14.65,2.71,7.76-3,5.13-5.14S231.88,139.62,226.42,140.29Z"/>
    </clipPath>
    <clipPath id="clip-path-9" transform="translate(-183.13 -99)">
      <path class="cls-1" d="M306.51,267.68a27.8,27.8,0,0,0,14.59,4.06l.56,9.09a27.72,27.72,0,0,1-14.6-4.06Q306.79,272.23,306.51,267.68Z"/>
    </clipPath>
    <clipPath id="clip-path-10" transform="translate(-183.13 -99)">
      <path class="cls-1" d="M347.35,248c0-.49,0-1,0-1.45l.56,9.1c0,.47,0,1,0,1.44-.07,13.13-11.82,23.78-26.25,23.78l-.56-9.09C335.54,271.74,347.29,261.09,347.35,248Z"/>
    </clipPath>
    <clipPath id="clip-path-11" transform="translate(-183.13 -99)">
      <path class="cls-1" d="M295.13,249.4a23.28,23.28,0,0,0,11.38,18.28q.28,4.54.55,9.09a23.29,23.29,0,0,1-11.38-18.27C295.52,255.77,295.3,252.13,295.13,249.4Z"/>
    </clipPath>
    <clipPath id="clip-path-12" transform="translate(-183.13 -99)">
      <path class="cls-1" d="M347.31,246.51l.56,9.09c-.76-12.46-12.08-22.34-26-22.34l-.55-9.1C335.24,224.16,346.55,234,347.31,246.51Z"/>
    </clipPath>
    <clipPath id="clip-path-13" transform="translate(-183.13 -99)">
      <path class="cls-1" d="M295.68,258.5l-.55-9.1c0-.48,0-1,0-1.44.06-13.15,11.82-23.8,26.25-23.8l.55,9.1c-14.43,0-26.18,10.65-26.25,23.79C295.64,257.54,295.65,258,295.68,258.5Z"/>
    </clipPath>
    <clipPath id="clip-path-14" transform="translate(-183.13 -99)">
      <path class="cls-1" d="M358.66,245.88l.55,9.1c-1.08-17.89-17.32-32.06-37.26-32.06l-.56-9.09C341.33,213.83,357.57,228,358.66,245.88Z"/>
    </clipPath>
    <clipPath id="clip-path-15" transform="translate(-183.13 -99)">
      <path class="cls-1" d="M284.34,259.13l-.55-9.1q-.06-1-.06-2.07c.1-18.86,17-34.13,37.66-34.13l.56,9.09c-20.71,0-37.57,15.28-37.66,34.13C284.28,257.75,284.3,258.44,284.34,259.13Z"/>
    </clipPath>
    <radialGradient id="radial-gradient" cx="411.76" cy="173.13" r="10.81" gradientTransform="translate(-692.22 -327.49) scale(2.26 2.33)" gradientUnits="userSpaceOnUse">
      <stop offset="0" stop-color="#200000"/>
      <stop offset="0.73" stop-color="#9c4122"/>
      <stop offset="1" stop-color="#200000"/>
    </radialGradient>
    <radialGradient id="radial-gradient-2" cx="411.76" cy="173.13" r="5.41" gradientTransform="translate(-692.22 -327.49) scale(2.26 2.33)" gradientUnits="userSpaceOnUse">
      <stop offset="0.15" stop-color="#fff"/>
      <stop offset="0.21" stop-color="#e5d2d2"/>
      <stop offset="0.29" stop-color="#c59b9c"/>
      <stop offset="0.36" stop-color="#ae7374"/>
      <stop offset="0.42" stop-color="#a05b5c"/>
      <stop offset="0.45" stop-color="#9b5253"/>
      <stop offset="0.58" stop-color="#693131"/>
      <stop offset="0.7" stop-color="#411616"/>
      <stop offset="0.79" stop-color="#290606"/>
      <stop offset="0.85" stop-color="#200000"/>
      <stop offset="0.86" stop-color="#240201"/>
      <stop offset="0.86" stop-color="#310803"/>
      <stop offset="0.87" stop-color="#451108"/>
      <stop offset="0.88" stop-color="#621e0e"/>
      <stop offset="0.89" stop-color="#883016"/>
      <stop offset="0.9" stop-color="#b5441f"/>
      <stop offset="0.9" stop-color="#d55326"/>
      <stop offset="0.9" stop-color="#c64c23"/>
      <stop offset="0.91" stop-color="#9a381a"/>
      <stop offset="0.93" stop-color="#752712"/>
      <stop offset="0.94" stop-color="#56190b"/>
      <stop offset="0.95" stop-color="#3e0e06"/>
      <stop offset="0.97" stop-color="#2d0603"/>
      <stop offset="0.98" stop-color="#230101"/>
      <stop offset="1" stop-color="#200000"/>
    </radialGradient>
    <radialGradient id="radial-gradient-3" cx="411.76" cy="173.13" r="4.51" gradientTransform="translate(-692.22 -327.49) scale(2.26 2.33)" gradientUnits="userSpaceOnUse">
      <stop offset="0.15" stop-color="#fff"/>
      <stop offset="0.28" stop-color="#c2c2c2"/>
      <stop offset="0.43" stop-color="#888"/>
      <stop offset="0.56" stop-color="#575757"/>
      <stop offset="0.69" stop-color="#313131"/>
      <stop offset="0.81" stop-color="#161616"/>
      <stop offset="0.92" stop-color="#060606"/>
      <stop offset="1"/>
    </radialGradient>
  </defs>
  <g class="cls-2">
    <g id="图层_1" data-name="图层 1">
      <g id="CameraBody">
        <g class="cls-2">
          <g class="cls-2">
            <g class="cls-3">
              <g class="cls-2">
                <path class="cls-4" d="M184.2,320.27l-1.06-17.36c0-.17,0-.33,0-.5l1.05,17.37c0,.16,0,.33,0,.49" transform="translate(-183.13 -99)"/>
              </g>
            </g>
          </g>
          <polygon class="cls-5" points="1.06 220.78 0 203.41 0.02 199.56 1.08 216.93 1.06 220.78"/>
          <polygon class="cls-6" points="47.1 213.09 46.04 195.72 271 195.72 272.06 213.09 47.1 213.09"/>
          <polygon class="cls-7" points="47.74 84.28 272.71 84.28 272.06 213.09 47.1 213.09 47.74 84.28"/>
          <polygon class="cls-6" points="31.1 213.09 30.04 195.72 46.04 195.72 47.1 213.09 31.1 213.09"/>
          <path class="cls-8" d="M455.19,312.09l0,3.84a11.85,11.85,0,0,1-12.06,11.54h-251a7.81,7.81,0,0,1-8-7.69l0-3.85,0-3.84h271Z" transform="translate(-183.13 -99)"/>
          <polygon class="cls-6" points="1.09 213.09 0.04 195.72 30.04 195.72 31.1 213.09 1.09 213.09"/>
          <polygon class="cls-5" points="1.08 216.93 0.02 199.56 0.04 195.72 1.09 213.09 1.08 216.93"/>
          <polygon class="cls-9" points="47.74 84.28 46.68 66.91 271.65 66.91 272.71 84.28 47.74 84.28"/>
          <polygon class="cls-6" points="219.73 80.44 218.68 63.07 253.67 63.07 254.73 80.44 219.73 80.44"/>
          <polygon class="cls-5" points="254.73 80.44 253.67 63.07 253.72 54.42 254.77 71.78 254.73 80.44"/>
          <polygon class="cls-10" points="47.1 213.09 46.04 195.72 46.68 66.91 47.74 84.28 47.1 213.09"/>
          <polygon class="cls-11" points="31.1 213.09 30.04 195.72 30.68 66.91 31.74 84.28 31.1 213.09"/>
          <polygon class="cls-12" points="47.74 84.28 47.1 213.09 31.1 213.09 31.74 84.28 47.74 84.28"/>
          <polygon class="cls-11" points="31.74 84.28 30.68 66.91 46.68 66.91 47.74 84.28 31.74 84.28"/>
          <polygon class="cls-13" points="219.73 80.44 218.68 63.07 218.72 54.42 219.78 71.78 219.73 80.44"/>
          <polygon class="cls-14" points="254.77 71.78 254.73 80.44 219.73 80.44 219.78 71.78 254.77 71.78"/>
          <polygon class="cls-15" points="219.78 71.78 218.72 54.42 253.72 54.42 254.77 71.78 219.78 71.78"/>
          <g class="cls-2">
            <g class="cls-16">
              <g class="cls-2">
                <path class="cls-4" d="M443.91,167.89l-1.06-17.36a11.75,11.75,0,0,1,11.93,10.8l1.05,17.36a11.73,11.73,0,0,0-11.92-10.8" transform="translate(-183.13 -99)"/>
              </g>
            </g>
          </g>
          <polygon class="cls-9" points="1.74 84.28 0.68 66.91 30.68 66.91 31.74 84.28 1.74 84.28"/>
          <polygon class="cls-5" points="1.74 84.28 0.68 66.91 0.7 63.07 1.76 80.44 1.74 84.28"/>
          <polygon class="cls-7" points="1.09 213.09 1.74 84.28 31.74 84.28 31.1 213.09 1.09 213.09"/>
          <polygon class="cls-10" points="1.09 213.09 0.04 195.72 0.68 66.91 1.74 84.28 1.09 213.09"/>
          <polygon class="cls-5" points="1.76 80.44 0.7 63.07 0.72 59.22 1.78 76.59 1.76 80.44"/>
          <polygon class="cls-6" points="9.82 68.89 8.76 51.53 259.72 51.53 260.78 68.89 9.82 68.89"/>
          <g class="cls-2">
            <g class="cls-17">
              <g class="cls-2">
                <path class="cls-4" d="M184.91,175.59l-1.06-17.37a7.89,7.89,0,0,1,8-7.69l1.05,17.36a7.9,7.9,0,0,0-8,7.7" transform="translate(-183.13 -99)"/>
              </g>
            </g>
          </g>
          <path class="cls-8" d="M443.91,167.89a11.7,11.7,0,0,1,11.94,11.55l0,3.84h-271l0-3.84,0-3.85a7.9,7.9,0,0,1,8-7.7Zm-6.05,11.55,0-8.66h-35l0,8.66h35" transform="translate(-183.13 -99)"/>
        </g>
      </g>
      <g class="cls-2">
        <g class="cls-2">
          <g class="cls-18">
            <g class="cls-2">
              <path class="cls-19" d="M242.53,165l-2.88.91a20.72,20.72,0,0,1-3.49.76c-5.4.76-11.7.06-15.65-1.57l-2.79-1.15c5.12,2.12,13.29,3,20.28,2a28,28,0,0,0,4.53-1" transform="translate(-183.13 -99)"/>
            </g>
          </g>
        </g>
        <path class="cls-20" d="M224.85,144.38c6.68-.94,14.77.35,18,2.9s.5,5.36-6.18,6.3-14.78-.36-18.05-2.9S218.16,145.31,224.85,144.38Z" transform="translate(-183.13 -99)"/>
        <g class="cls-2">
          <g class="cls-21">
            <g class="cls-2">
              <path class="cls-22" d="M248.18,151.76l-.38,8.94a1.36,1.36,0,0,1,0,.2l.38-8.94c0-.07,0-.13,0-.2" transform="translate(-183.13 -99)"/>
              <path class="cls-5" d="M248.16,152l-.38,8.94a2.52,2.52,0,0,1-.1.46l.37-8.94a2.78,2.78,0,0,0,.11-.46" transform="translate(-183.13 -99)"/>
              <path class="cls-23" d="M248.05,152.42l-.37,8.94a4,4,0,0,1-.19.43l.37-8.94a3.15,3.15,0,0,0,.19-.43" transform="translate(-183.13 -99)"/>
              <path class="cls-24" d="M247.86,152.85l-.37,8.94a4.81,4.81,0,0,1-.27.41l.38-8.94a3.1,3.1,0,0,0,.26-.41" transform="translate(-183.13 -99)"/>
              <path class="cls-25" d="M247.6,153.26l-.38,8.94c-.1.13-.21.26-.34.4l.38-8.95a4,4,0,0,0,.34-.39" transform="translate(-183.13 -99)"/>
              <path class="cls-26" d="M247.26,153.65l-.38,8.95a5.16,5.16,0,0,1-.41.39l.37-9a2.62,2.62,0,0,0,.42-.39" transform="translate(-183.13 -99)"/>
              <path class="cls-27" d="M246.84,154l-.37,9c-.16.13-.33.26-.51.38l.37-8.94a3.42,3.42,0,0,0,.51-.39" transform="translate(-183.13 -99)"/>
              <path class="cls-28" d="M246.33,154.43l-.37,8.94-.62.39.37-8.94c.22-.13.43-.26.62-.39" transform="translate(-183.13 -99)"/>
              <path class="cls-29" d="M245.71,154.82l-.37,8.94c-.24.14-.5.27-.77.4l.38-8.94c.27-.13.52-.26.76-.4" transform="translate(-183.13 -99)"/>
              <path class="cls-30" d="M245,155.22l-.38,8.94c-.3.14-.63.28-1,.42l.38-8.94c.35-.14.67-.28,1-.42" transform="translate(-183.13 -99)"/>
              <path class="cls-31" d="M244,155.64l-.38,8.94q-.66.25-1.41.48l.38-8.94q.75-.23,1.41-.48" transform="translate(-183.13 -99)"/>
              <path class="cls-32" d="M242.56,156.12l-.38,8.94a28.34,28.34,0,0,1-3.71.81l.38-8.94a29.09,29.09,0,0,0,3.71-.81" transform="translate(-183.13 -99)"/>
              <path class="cls-33" d="M238.85,156.93l-.38,8.94-.47.07-.2,0,.38-8.94.2,0,.47-.07" transform="translate(-183.13 -99)"/>
              <path class="cls-32" d="M238.18,157,237.8,166c-1.22.17-2.47.28-3.74.33l.38-8.94c1.26,0,2.52-.16,3.74-.33" transform="translate(-183.13 -99)"/>
              <path class="cls-31" d="M234.44,157.35l-.38,8.94c-.58,0-1.16,0-1.75,0l.38-8.94c.59,0,1.17,0,1.75,0" transform="translate(-183.13 -99)"/>
              <path class="cls-30" d="M232.69,157.39l-.38,8.94c-.48,0-1,0-1.45,0l.38-8.94c.48,0,1,0,1.45,0" transform="translate(-183.13 -99)"/>
              <path class="cls-29" d="M231.24,157.38l-.38,8.94-1.31,0,.37-8.94,1.32,0" transform="translate(-183.13 -99)"/>
              <path class="cls-28" d="M229.92,157.33l-.37,8.94-1.24-.08.37-8.94,1.24.08" transform="translate(-183.13 -99)"/>
              <path class="cls-27" d="M228.68,157.25l-.37,8.94-1.19-.11.37-8.94,1.19.11" transform="translate(-183.13 -99)"/>
              <path class="cls-26" d="M227.49,157.14l-.37,8.94-1.16-.14.38-8.94,1.15.14" transform="translate(-183.13 -99)"/>
              <path class="cls-25" d="M226.34,157l-.38,8.94-1.13-.16.38-8.94,1.13.16" transform="translate(-183.13 -99)"/>
              <path class="cls-24" d="M225.21,156.84l-.38,8.94-1.12-.19.38-8.94,1.12.19" transform="translate(-183.13 -99)"/>
              <path class="cls-23" d="M224.09,156.65l-.38,8.94-1.12-.22.38-8.94,1.12.22" transform="translate(-183.13 -99)"/>
              <path class="cls-5" d="M223,156.43l-.38,8.94-1.13-.26.38-8.94,1.13.26" transform="translate(-183.13 -99)"/>
              <path class="cls-22" d="M221.84,156.17l-.38,8.94-1.17-.32.38-8.94,1.17.32" transform="translate(-183.13 -99)"/>
              <path class="cls-34" d="M220.67,155.85l-.38,8.94c-.43-.12-.85-.25-1.25-.39l.38-8.94c.4.14.82.27,1.25.39" transform="translate(-183.13 -99)"/>
              <path class="cls-35" d="M219.42,155.46,219,164.4q-.75-.26-1.44-.54l.38-8.94q.69.29,1.44.54" transform="translate(-183.13 -99)"/>
              <path class="cls-19" d="M218,154.92l-.38,8.94a13.58,13.58,0,0,1-3-1.68,3.72,3.72,0,0,1-1.78-2.94l.38-8.94a3.72,3.72,0,0,0,1.78,2.94,13.58,13.58,0,0,0,3,1.68" transform="translate(-183.13 -99)"/>
            </g>
          </g>
        </g>
        <g class="cls-2">
          <g class="cls-36">
            <g class="cls-2">
              <path class="cls-23" d="M240.49,146l2.79,1.15q.54.21,1,.45l-3-1.25-.79-.35" transform="translate(-183.13 -99)"/>
              <path class="cls-24" d="M241.28,146.3l3,1.25c.38.19.74.38,1.08.58l-3.27-1.38a9.32,9.32,0,0,0-.83-.45" transform="translate(-183.13 -99)"/>
              <path class="cls-25" d="M242.11,146.75l3.27,1.38c.31.19.6.38.87.58l-3.47-1.52c-.21-.15-.43-.3-.67-.44" transform="translate(-183.13 -99)"/>
              <path class="cls-26" d="M242.78,147.19l3.47,1.52.14.11a6.46,6.46,0,0,1,.54.46l-3.63-1.65a3.58,3.58,0,0,0-.41-.35l-.11-.09" transform="translate(-183.13 -99)"/>
              <path class="cls-27" d="M243.3,147.63l3.63,1.65a5.2,5.2,0,0,1,.51.55l-3.74-1.78a3.87,3.87,0,0,0-.4-.42" transform="translate(-183.13 -99)"/>
              <path class="cls-28" d="M243.7,148.05l3.74,1.78a3,3,0,0,1,.37.53l-3.83-1.9a4.29,4.29,0,0,0-.28-.41" transform="translate(-183.13 -99)"/>
              <path class="cls-29" d="M244,148.46l3.83,1.9a3.1,3.1,0,0,1,.24.53l-3.88-2a2.5,2.5,0,0,0-.19-.41" transform="translate(-183.13 -99)"/>
              <path class="cls-30" d="M244.17,148.87l3.88,2a1.93,1.93,0,0,1,.11.52l-3.9-2.13a3,3,0,0,0-.09-.41" transform="translate(-183.13 -99)"/>
              <path class="cls-31" d="M244.26,149.28l3.9,2.13a2.35,2.35,0,0,1,0,.53l-3.91-2.26a1.79,1.79,0,0,0,0-.4" transform="translate(-183.13 -99)"/>
              <path class="cls-32" d="M244.25,149.68l3.91,2.26a2.05,2.05,0,0,1-.13.53l-3.87-2.38a2,2,0,0,0,.09-.41" transform="translate(-183.13 -99)"/>
              <path class="cls-33" d="M244.16,150.09l3.87,2.38a2.37,2.37,0,0,1-.26.53L244,150.5a1.77,1.77,0,0,0,.21-.41" transform="translate(-183.13 -99)"/>
              <path class="cls-37" d="M244,150.5l3.82,2.5a3.41,3.41,0,0,1-.41.55l-3.73-2.63a2,2,0,0,0,.32-.42" transform="translate(-183.13 -99)"/>
              <path class="cls-38" d="M243.63,150.92l3.73,2.63a4.66,4.66,0,0,1-.6.56l-3.58-2.76a3.71,3.71,0,0,0,.45-.43" transform="translate(-183.13 -99)"/>
              <path class="cls-39" d="M243.18,151.35l3.58,2.76a8.23,8.23,0,0,1-.84.59l-3.4-2.89a6.94,6.94,0,0,0,.66-.46" transform="translate(-183.13 -99)"/>
              <path class="cls-40" d="M242.52,151.81l3.4,2.89a12,12,0,0,1-1.19.62l-3.13-3a7.16,7.16,0,0,0,.92-.48" transform="translate(-183.13 -99)"/>
              <path class="cls-41" d="M241.6,152.29l3.13,3a17.05,17.05,0,0,1-1.89.71l-2.69-3.19a12.61,12.61,0,0,0,1.45-.55" transform="translate(-183.13 -99)"/>
              <path class="cls-42" d="M240.15,152.84l2.69,3.19a28.72,28.72,0,0,1-4.46,1,43.13,43.13,0,0,1-5.13.39l-.5-3.51a32.07,32.07,0,0,0,4-.3,21.43,21.43,0,0,0,3.44-.74" transform="translate(-183.13 -99)"/>
              <path class="cls-41" d="M232.75,153.88l.5,3.51c-.77,0-1.54,0-2.31,0l0-3.5c.59,0,1.19,0,1.78,0" transform="translate(-183.13 -99)"/>
              <path class="cls-40" d="M231,153.87l0,3.5c-.62,0-1.25-.05-1.87-.1l.46-3.47,1.44.07" transform="translate(-183.13 -99)"/>
              <path class="cls-39" d="M229.53,153.8l-.46,3.47c-.55,0-1.1-.08-1.65-.14l.83-3.45c.42,0,.85.09,1.28.12" transform="translate(-183.13 -99)"/>
              <path class="cls-38" d="M228.25,153.68l-.83,3.45-1.54-.19,1.19-3.4,1.18.14" transform="translate(-183.13 -99)"/>
              <path class="cls-37" d="M227.07,153.54l-1.19,3.4c-.49-.07-1-.14-1.44-.23l1.51-3.35c.37.07.74.13,1.12.18" transform="translate(-183.13 -99)"/>
              <path class="cls-33" d="M226,153.36l-1.51,3.35-1.37-.26,1.83-3.29,1,.2" transform="translate(-183.13 -99)"/>
              <path class="cls-32" d="M224.9,153.16l-1.83,3.29q-.66-.13-1.29-.3l2.12-3.22,1,.23" transform="translate(-183.13 -99)"/>
              <path class="cls-31" d="M223.9,152.93l-2.12,3.22c-.41-.1-.82-.21-1.21-.33l2.4-3.14.93.25" transform="translate(-183.13 -99)"/>
              <path class="cls-30" d="M223,152.68l-2.4,3.14q-.58-.16-1.14-.36l2.66-3.06.88.28" transform="translate(-183.13 -99)"/>
              <path class="cls-29" d="M222.09,152.4l-2.66,3.06c-.37-.12-.73-.26-1.08-.39l2.91-3c.26.11.54.21.83.31" transform="translate(-183.13 -99)"/>
              <path class="cls-28" d="M221.26,152.09l-2.91,3c-.35-.14-.68-.28-1-.43l3.13-2.88q.38.18.78.33" transform="translate(-183.13 -99)"/>
              <path class="cls-27" d="M220.48,151.76l-3.13,2.88c-.33-.16-.64-.31-.94-.48l3.35-2.76.72.36" transform="translate(-183.13 -99)"/>
              <path class="cls-26" d="M219.76,151.4l-3.35,2.76c-.31-.17-.6-.34-.87-.52l3.55-2.65c.2.14.43.27.67.41" transform="translate(-183.13 -99)"/>
              <path class="cls-25" d="M219.09,151l-3.55,2.65c-.2-.13-.38-.27-.56-.4l-.24-.2,3.73-2.51.19.15a4.73,4.73,0,0,0,.43.31" transform="translate(-183.13 -99)"/>
              <path class="cls-24" d="M218.47,150.53,214.74,153a6.14,6.14,0,0,1-.68-.66L218,150a6.31,6.31,0,0,0,.52.5" transform="translate(-183.13 -99)"/>
              <path class="cls-23" d="M218,150l-3.89,2.35a4.12,4.12,0,0,1-.52-.73l4-2.19a2.83,2.83,0,0,0,.4.57" transform="translate(-183.13 -99)"/>
              <path class="cls-5" d="M217.55,149.46l-4,2.19a2.8,2.8,0,0,1-.31-.86l4.08-2a2.3,2.3,0,0,0,.24.66" transform="translate(-183.13 -99)"/>
              <path class="cls-22" d="M217.31,148.8l-4.08,2a2.29,2.29,0,0,1,.06-1l4.06-1.76a1.84,1.84,0,0,0,0,.81" transform="translate(-183.13 -99)"/>
              <path class="cls-34" d="M217.35,148l-4.06,1.76a3.34,3.34,0,0,1,.85-1.37l3.87-1.44a2.57,2.57,0,0,0-.66,1.05" transform="translate(-183.13 -99)"/>
              <path class="cls-35" d="M218,146.94l-3.87,1.44a10.34,10.34,0,0,1,4.16-2.27l2.92-.93a8,8,0,0,0-3.21,1.76" transform="translate(-183.13 -99)"/>
              <path class="cls-19" d="M221.22,145.18l-2.92.93.17-.06,2.88-.91-.13,0" transform="translate(-183.13 -99)"/>
            </g>
          </g>
        </g>
      </g>
      <g id="ShutterBtn">
        <g class="cls-2">
          <path class="cls-43" d="M226.42,140.29c5.46-.67,12,.55,14.65,2.71s.33,4.47-5.13,5.14-12-.54-14.65-2.71S221,141,226.42,140.29Z" transform="translate(-183.13 -99)"/>
          <g class="cls-2">
            <g class="cls-44">
              <g class="cls-2">
                <path class="cls-45" d="M246.09,146l-.24,3.82a1,1,0,0,1,0,.24l.24-3.82a1,1,0,0,0,0-.24" transform="translate(-183.13 -99)"/>
                <path class="cls-46" d="M246.06,146.28l-.24,3.82a1.52,1.52,0,0,1-.12.4l.25-3.81a2.08,2.08,0,0,0,.11-.41" transform="translate(-183.13 -99)"/>
                <path class="cls-47" d="M246,146.69l-.25,3.81a2.64,2.64,0,0,1-.18.38l.24-3.81c.07-.13.14-.26.19-.38" transform="translate(-183.13 -99)"/>
                <path class="cls-48" d="M245.76,147.07l-.24,3.81a4.06,4.06,0,0,1-.26.36l.24-3.81a2.7,2.7,0,0,0,.26-.36" transform="translate(-183.13 -99)"/>
                <path class="cls-49" d="M245.5,147.43l-.24,3.81a3.61,3.61,0,0,1-.33.35l.25-3.81a3.39,3.39,0,0,0,.32-.35" transform="translate(-183.13 -99)"/>
                <path class="cls-50" d="M245.18,147.78l-.25,3.81a4.32,4.32,0,0,1-.39.34l.24-3.81.4-.34" transform="translate(-183.13 -99)"/>
                <path class="cls-51" d="M244.78,148.12l-.24,3.81a4.69,4.69,0,0,1-.49.34l.25-3.82.48-.33" transform="translate(-183.13 -99)"/>
                <path class="cls-52" d="M244.3,148.45l-.25,3.82-.59.33.25-3.81c.21-.11.4-.22.59-.34" transform="translate(-183.13 -99)"/>
                <path class="cls-53" d="M243.71,148.79l-.25,3.81c-.23.12-.47.24-.73.35l.24-3.82c.26-.11.51-.22.74-.34" transform="translate(-183.13 -99)"/>
                <path class="cls-54" d="M243,149.13l-.24,3.82c-.31.13-.64.25-1,.37l.24-3.81c.35-.12.68-.25,1-.38" transform="translate(-183.13 -99)"/>
                <path class="cls-43" d="M242,149.51l-.24,3.81c-.47.16-1,.3-1.52.43l.25-3.81c.54-.13,1-.28,1.51-.43" transform="translate(-183.13 -99)"/>
                <path class="cls-55" d="M240.47,149.94l-.25,3.81a25.27,25.27,0,0,1-2.85.51c-.83.1-1.69.17-2.55.21l.24-3.82c.87,0,1.72-.11,2.56-.21a28.87,28.87,0,0,0,2.85-.5" transform="translate(-183.13 -99)"/>
                <path class="cls-43" d="M235.06,150.65l-.24,3.82c-.61,0-1.23,0-1.84,0l.24-3.82c.62,0,1.23,0,1.84,0" transform="translate(-183.13 -99)"/>
                <path class="cls-54" d="M233.22,150.69l-.24,3.82c-.46,0-.93,0-1.39,0l.25-3.82q.69,0,1.38,0" transform="translate(-183.13 -99)"/>
                <path class="cls-53" d="M231.84,150.66l-.25,3.82c-.4,0-.8,0-1.2-.06l.25-3.82q.6,0,1.2.06" transform="translate(-183.13 -99)"/>
                <path class="cls-52" d="M230.64,150.6l-.25,3.82-1.11-.09.24-3.82c.37,0,.75.07,1.12.09" transform="translate(-183.13 -99)"/>
                <path class="cls-51" d="M229.52,150.51l-.24,3.82-1.06-.12.25-3.81,1.05.11" transform="translate(-183.13 -99)"/>
                <path class="cls-50" d="M228.47,150.4l-.25,3.81-1-.14.25-3.81,1,.14" transform="translate(-183.13 -99)"/>
                <path class="cls-49" d="M227.45,150.26l-.25,3.81-1-.16.24-3.81,1,.16" transform="translate(-183.13 -99)"/>
                <path class="cls-48" d="M226.45,150.1l-.24,3.81-1-.19.25-3.81,1,.19" transform="translate(-183.13 -99)"/>
                <path class="cls-47" d="M225.47,149.91l-.25,3.81c-.33-.06-.65-.14-1-.21l.25-3.82,1,.22" transform="translate(-183.13 -99)"/>
                <path class="cls-46" d="M224.49,149.69l-.25,3.82-1-.25.24-3.82,1,.25" transform="translate(-183.13 -99)"/>
                <path class="cls-45" d="M223.5,149.44l-.24,3.82-1-.3.24-3.82,1,.3" transform="translate(-183.13 -99)"/>
                <path class="cls-12" d="M222.48,149.14l-.24,3.82-1.08-.37.24-3.82c.35.13.71.25,1.08.37" transform="translate(-183.13 -99)"/>
                <path class="cls-56" d="M221.4,148.77l-.24,3.82c-.44-.16-.85-.33-1.24-.51l.24-3.82c.39.18.81.35,1.24.51" transform="translate(-183.13 -99)"/>
                <path class="cls-57" d="M220.16,148.26l-.24,3.82a11.51,11.51,0,0,1-2.53-1.51,3.26,3.26,0,0,1-1.48-2.62l.24-3.81a3.29,3.29,0,0,0,1.48,2.61,11.36,11.36,0,0,0,2.53,1.51" transform="translate(-183.13 -99)"/>
              </g>
            </g>
          </g>
          <g class="cls-2">
            <g class="cls-58">
              <g class="cls-2">
                <path class="cls-47" d="M226.42,140.29l-1.79-.55a38.75,38.75,0,0,1,8.68,0l-.53.56a28.18,28.18,0,0,0-6.36,0" transform="translate(-183.13 -99)"/>
                <path class="cls-48" d="M232.78,140.29l.53-.56a38.12,38.12,0,0,1,4.53.78l-1.73.35a26,26,0,0,0-3.33-.57" transform="translate(-183.13 -99)"/>
                <path class="cls-49" d="M236.11,140.86l1.73-.35a27.6,27.6,0,0,1,3,.9l-2.53.1a22.55,22.55,0,0,0-2.18-.65" transform="translate(-183.13 -99)"/>
                <path class="cls-50" d="M238.29,141.51l2.53-.1a17.89,17.89,0,0,1,2.1.92l-3.09-.14a13.92,13.92,0,0,0-1.54-.68" transform="translate(-183.13 -99)"/>
                <path class="cls-51" d="M239.83,142.19l3.09.14a9.81,9.81,0,0,1,1.51,1l-3.49-.39a7.32,7.32,0,0,0-1.11-.71" transform="translate(-183.13 -99)"/>
                <path class="cls-52" d="M240.94,142.9l3.49.39.19.15a4.92,4.92,0,0,1,.82.83l-3.76-.66a3.9,3.9,0,0,0-.61-.61l-.13-.1" transform="translate(-183.13 -99)"/>
                <path class="cls-53" d="M241.68,143.61l3.76.66a3.19,3.19,0,0,1,.55,1l-3.91-.92a2.44,2.44,0,0,0-.4-.71" transform="translate(-183.13 -99)"/>
                <path class="cls-54" d="M242.08,144.32l3.91.92a2.14,2.14,0,0,1,.08,1l-3.93-1.18a1.57,1.57,0,0,0-.06-.74" transform="translate(-183.13 -99)"/>
                <path class="cls-43" d="M242.14,145.06l3.93,1.18a2.43,2.43,0,0,1-.45,1l-3.81-1.46a1.75,1.75,0,0,0,.33-.76" transform="translate(-183.13 -99)"/>
                <path class="cls-55" d="M241.81,145.82l3.81,1.46a4.73,4.73,0,0,1-1.24,1.12l-3.48-1.76a3.51,3.51,0,0,0,.91-.82" transform="translate(-183.13 -99)"/>
                <path class="cls-59" d="M240.9,146.64l3.48,1.76a11.87,11.87,0,0,1-3.23,1.36l-2.62-2.12a8.39,8.39,0,0,0,2.37-1" transform="translate(-183.13 -99)"/>
                <path class="cls-60" d="M238.53,147.64l2.62,2.12a23.57,23.57,0,0,1-3.53.68c-1,.12-2,.2-3,.23l-.88-2.36c.74,0,1.48-.08,2.19-.17a17.8,17.8,0,0,0,2.59-.5" transform="translate(-183.13 -99)"/>
                <path class="cls-59" d="M233.75,148.31l.88,2.36a39.94,39.94,0,0,1-5.25-.17l.52-2.32a29.09,29.09,0,0,0,3.85.13" transform="translate(-183.13 -99)"/>
                <path class="cls-55" d="M229.9,148.18l-.52,2.32c-1.15-.12-2.27-.28-3.35-.48l1.42-2.19c.79.15,1.61.27,2.45.35" transform="translate(-183.13 -99)"/>
                <path class="cls-43" d="M227.45,147.83,226,150c-.91-.17-1.8-.38-2.64-.61l2.12-2c.62.17,1.26.32,1.94.45" transform="translate(-183.13 -99)"/>
                <path class="cls-54" d="M225.51,147.38l-2.12,2c-.76-.21-1.49-.45-2.17-.71l2.7-1.84a15.61,15.61,0,0,0,1.59.52" transform="translate(-183.13 -99)"/>
                <path class="cls-53" d="M223.92,146.86l-2.7,1.84a15.75,15.75,0,0,1-1.79-.79l3.17-1.63a11.62,11.62,0,0,0,1.32.58" transform="translate(-183.13 -99)"/>
                <path class="cls-52" d="M222.6,146.28l-3.17,1.63A12.42,12.42,0,0,1,218,147l3.57-1.39a8.2,8.2,0,0,0,1.07.66" transform="translate(-183.13 -99)"/>
                <path class="cls-51" d="M221.53,145.62,218,147l-.33-.26a5.7,5.7,0,0,1-.78-.77l3.86-1.11a3.89,3.89,0,0,0,.58.56,1.55,1.55,0,0,0,.24.19" transform="translate(-183.13 -99)"/>
                <path class="cls-50" d="M220.71,144.87,216.85,146a3.11,3.11,0,0,1-.62-1.13l4-.81a2.2,2.2,0,0,0,.45.83" transform="translate(-183.13 -99)"/>
                <path class="cls-49" d="M220.26,144l-4,.81a2.06,2.06,0,0,1,.05-1.32l4-.46a1.47,1.47,0,0,0,0,1" transform="translate(-183.13 -99)"/>
                <path class="cls-48" d="M220.3,143.07l-4,.46a3.67,3.67,0,0,1,1.37-1.6l3.65,0a2.56,2.56,0,0,0-1,1.17" transform="translate(-183.13 -99)"/>
                <path class="cls-47" d="M221.3,141.9l-3.65,0a15.93,15.93,0,0,1,7-2.19l1.79.55a11.74,11.74,0,0,0-5.12,1.61" transform="translate(-183.13 -99)"/>
              </g>
            </g>
          </g>
        </g>
      </g>
      <g class="cls-2">
        <polygon class="cls-25" points="165.16 100.75 165.16 96.89 175.87 150.42 175.87 154.28 165.16 100.75"/>
        <polygon class="cls-61" points="100.88 154.28 100.88 150.42 111.59 96.89 111.59 100.75 100.88 154.28"/>
        <polygon class="cls-62" points="146.95 72.58 146.95 68.72 165.16 96.89 165.16 100.75 146.95 72.58"/>
        <polygon class="cls-63" points="111.59 100.75 111.59 96.89 129.8 68.72 129.8 72.58 111.59 100.75"/>
        <rect class="cls-30" x="129.8" y="68.72" width="8.57" height="3.86"/>
        <rect class="cls-30" x="138.37" y="68.72" width="8.58" height="3.86"/>
        <polygon class="cls-64" points="146.95 72.58 165.16 100.75 175.87 154.28 138.37 154.28 100.88 154.28 111.59 100.75 129.8 72.58 138.37 72.58 146.95 72.58"/>
      </g>
      <g id="Lens">
        <g class="cls-2">
          <g class="cls-2">
            <g class="cls-65">
              <g class="cls-2">
                <path class="cls-66" d="M304.62,275.06l-.55-9.09a27,27,0,0,0,11.41,5.22l.55,9.09a27,27,0,0,1-11.41-5.22" transform="translate(-183.13 -99)"/>
                <path class="cls-67" d="M316,280.28l-.55-9.09a28.79,28.79,0,0,0,5.62.55l.56,9.09a28.82,28.82,0,0,1-5.63-.55" transform="translate(-183.13 -99)"/>
              </g>
            </g>
          </g>
          <g class="cls-2">
            <g class="cls-68">
              <g class="cls-2">
                <path class="cls-67" d="M321.66,280.83l-.56-9.09,1,0,.56,9.1h-1" transform="translate(-183.13 -99)"/>
                <path class="cls-69" d="M322.68,280.82l-.56-9.1a28.66,28.66,0,0,0,4.78-.57l.56,9.1a28.91,28.91,0,0,1-4.78.57" transform="translate(-183.13 -99)"/>
                <path class="cls-70" d="M327.46,280.25l-.56-9.1A28.25,28.25,0,0,0,331,270l.55,9.1a28.12,28.12,0,0,1-4.11,1.18" transform="translate(-183.13 -99)"/>
                <path class="cls-71" d="M331.57,279.07,331,270a27.29,27.29,0,0,0,3.87-1.8l.56,9.1a28.56,28.56,0,0,1-3.88,1.8" transform="translate(-183.13 -99)"/>
                <path class="cls-72" d="M335.45,277.27l-.56-9.1a26.41,26.41,0,0,0,4-2.77l.55,9.09a26.16,26.16,0,0,1-4,2.78" transform="translate(-183.13 -99)"/>
                <path class="cls-73" d="M339.45,274.49l-.55-9.09A22.91,22.91,0,0,0,347.35,248c0-.49,0-1,0-1.45l.56,9.09c0,.48,0,1,0,1.45a22.94,22.94,0,0,1-8.46,17.44" transform="translate(-183.13 -99)"/>
              </g>
            </g>
          </g>
          <g class="cls-2">
            <g class="cls-74">
              <g class="cls-2">
                <path class="cls-72" d="M295.68,258.5l-.55-9.1c0,.66.11,1.32.21,2l.55,9.09c-.1-.64-.17-1.3-.21-2" transform="translate(-183.13 -99)"/>
                <path class="cls-71" d="M295.89,260.46l-.55-9.09a21.24,21.24,0,0,0,.86,3.56l.55,9.09a22.27,22.27,0,0,1-.86-3.56" transform="translate(-183.13 -99)"/>
                <path class="cls-70" d="M296.75,264l-.55-9.09a21.6,21.6,0,0,0,1.43,3.36l.55,9.1a21.31,21.31,0,0,1-1.43-3.37" transform="translate(-183.13 -99)"/>
                <path class="cls-69" d="M298.18,267.39l-.55-9.1a23.07,23.07,0,0,0,2.24,3.47l.55,9.1a24.13,24.13,0,0,1-2.24-3.47" transform="translate(-183.13 -99)"/>
                <path class="cls-67" d="M300.42,270.86l-.55-9.1a25,25,0,0,0,4.2,4.21l.55,9.09a24.55,24.55,0,0,1-4.2-4.2" transform="translate(-183.13 -99)"/>
                <path class="cls-66" d="M304.62,275.06l-.55-9.09a27,27,0,0,0,11.41,5.22l.55,9.09a27,27,0,0,1-11.41-5.22" transform="translate(-183.13 -99)"/>
              </g>
            </g>
          </g>
          <g class="cls-2">
            <g class="cls-75">
              <g class="cls-2">
                <path class="cls-76" d="M321.89,233.26l-.55-9.1a28.9,28.9,0,0,1,5.63.56l.55,9.09a28.82,28.82,0,0,0-5.63-.55" transform="translate(-183.13 -99)"/>
                <path class="cls-77" d="M327.52,233.81l-.55-9.09a26.86,26.86,0,0,1,11.4,5.21l.56,9.1a27,27,0,0,0-11.41-5.22" transform="translate(-183.13 -99)"/>
                <path class="cls-76" d="M338.93,239l-.56-9.1a25,25,0,0,1,4.2,4.21l.55,9.1a24.91,24.91,0,0,0-4.19-4.21" transform="translate(-183.13 -99)"/>
                <path class="cls-78" d="M343.12,243.24l-.55-9.1a23.07,23.07,0,0,1,2.24,3.47l.56,9.1a23.13,23.13,0,0,0-2.25-3.47" transform="translate(-183.13 -99)"/>
                <path class="cls-79" d="M345.37,246.71l-.56-9.1a22.32,22.32,0,0,1,1.44,3.37l.55,9.09a23.71,23.71,0,0,0-1.43-3.36" transform="translate(-183.13 -99)"/>
                <path class="cls-80" d="M346.8,250.07l-.55-9.09a21.22,21.22,0,0,1,.85,3.56l.56,9.09a22.27,22.27,0,0,0-.86-3.56" transform="translate(-183.13 -99)"/>
                <path class="cls-81" d="M347.66,253.63l-.56-9.09c.1.65.17,1.3.21,2l.56,9.09c0-.66-.11-1.32-.21-2" transform="translate(-183.13 -99)"/>
              </g>
            </g>
          </g>
          <g class="cls-2">
            <g class="cls-82">
              <g class="cls-2">
                <path class="cls-83" d="M295.68,258.5l-.55-9.1c0-.48,0-1,0-1.44a22.93,22.93,0,0,1,8.45-17.45l.56,9.09a23,23,0,0,0-8.46,17.45c0,.49,0,1,0,1.45" transform="translate(-183.13 -99)"/>
                <path class="cls-81" d="M304.1,239.6l-.56-9.09a26.75,26.75,0,0,1,4-2.78l.55,9.1a26.83,26.83,0,0,0-4,2.77" transform="translate(-183.13 -99)"/>
                <path class="cls-80" d="M308.1,236.83l-.55-9.1a28.56,28.56,0,0,1,3.88-1.8L312,235a27.4,27.4,0,0,0-3.88,1.8" transform="translate(-183.13 -99)"/>
                <path class="cls-79" d="M312,235l-.55-9.1a27.77,27.77,0,0,1,4.11-1.18l.55,9.1A28.12,28.12,0,0,0,312,235" transform="translate(-183.13 -99)"/>
                <path class="cls-78" d="M316.09,233.85l-.55-9.1a28.78,28.78,0,0,1,4.78-.57l.55,9.1a28.91,28.91,0,0,0-4.78.57" transform="translate(-183.13 -99)"/>
                <path class="cls-76" d="M320.87,233.28l-.55-9.1,1,0,.55,9.1-1,0" transform="translate(-183.13 -99)"/>
              </g>
            </g>
          </g>
          <path class="cls-84" d="M321.89,233.26c14.44,0,26.08,10.65,26,23.79s-11.82,23.78-26.25,23.78-26.08-10.65-26-23.78S307.46,233.26,321.89,233.26Z" transform="translate(-183.13 -99)"/>
          <g class="cls-2">
            <g class="cls-85">
              <g class="cls-2">
                <path class="cls-67" d="M322,222.92l-.56-9.09a41.05,41.05,0,0,1,8.07.79l.56,9.1a41.13,41.13,0,0,0-8.07-.8" transform="translate(-183.13 -99)"/>
                <path class="cls-66" d="M330,223.72l-.56-9.1a38.66,38.66,0,0,1,16.38,7.49l.55,9.09A38.66,38.66,0,0,0,330,223.72" transform="translate(-183.13 -99)"/>
                <path class="cls-67" d="M346.39,231.2l-.55-9.09a35.47,35.47,0,0,1,6,6l.55,9.09a35.46,35.46,0,0,0-6-6" transform="translate(-183.13 -99)"/>
                <path class="cls-69" d="M352.41,237.24l-.55-9.09a33.5,33.5,0,0,1,3.22,5l.55,9.1a33.59,33.59,0,0,0-3.22-5" transform="translate(-183.13 -99)"/>
                <path class="cls-70" d="M355.63,242.22l-.55-9.1a32.12,32.12,0,0,1,2.05,4.83l.55,9.09a32.45,32.45,0,0,0-2.05-4.82" transform="translate(-183.13 -99)"/>
                <path class="cls-71" d="M357.68,247l-.55-9.09a31.2,31.2,0,0,1,1.23,5.11l.55,9.09a30.45,30.45,0,0,0-1.23-5.11" transform="translate(-183.13 -99)"/>
                <path class="cls-72" d="M358.91,252.15l-.55-9.09q.21,1.4.3,2.82l.55,9.1a26.33,26.33,0,0,0-.3-2.83" transform="translate(-183.13 -99)"/>
              </g>
            </g>
          </g>
          <path class="cls-86" d="M322,222.92c20.7,0,37.42,15.28,37.32,34.13s-17,34.12-37.67,34.12-37.41-15.28-37.31-34.12S301.24,222.92,322,222.92Zm-.29,57.91c14.43,0,26.18-10.65,26.25-23.78s-11.58-23.79-26-23.79-26.18,10.65-26.25,23.79,11.58,23.78,26,23.78" transform="translate(-183.13 -99)"/>
          <g class="cls-2">
            <g class="cls-87">
              <g class="cls-2">
                <path class="cls-73" d="M284.34,259.13l-.55-9.1q-.06-1-.06-2.07a32.94,32.94,0,0,1,12.13-25l.56,9.1a32.88,32.88,0,0,0-12.13,25c0,.7,0,1.39,0,2.08" transform="translate(-183.13 -99)"/>
                <path class="cls-72" d="M296.42,232l-.56-9.1a38.15,38.15,0,0,1,5.75-4l.55,9.1a37.34,37.34,0,0,0-5.74,4" transform="translate(-183.13 -99)"/>
                <path class="cls-71" d="M302.16,228l-.55-9.1a39.11,39.11,0,0,1,5.56-2.58l.56,9.1a39.75,39.75,0,0,0-5.57,2.58" transform="translate(-183.13 -99)"/>
                <path class="cls-70" d="M307.73,225.46l-.56-9.1a41.22,41.22,0,0,1,5.9-1.69l.56,9.09a39.3,39.3,0,0,0-5.9,1.7" transform="translate(-183.13 -99)"/>
                <path class="cls-69" d="M313.63,223.76l-.56-9.09a40.58,40.58,0,0,1,6.86-.82l.55,9.1a41.38,41.38,0,0,0-6.85.81" transform="translate(-183.13 -99)"/>
                <path class="cls-67" d="M320.48,223l-.55-9.1c.48,0,1,0,1.46,0l.56,9.09c-.5,0-1,0-1.47,0" transform="translate(-183.13 -99)"/>
              </g>
            </g>
          </g>
        </g>
      </g>
      <g id="FX">
        <line class="cls-1" x1="238.35" y1="75.84" x2="250.4" y2="73.77"/>
        <ellipse class="cls-1" cx="238.35" cy="75.84" rx="10.18" ry="10.5"/>
        <ellipse class="cls-1" cx="238.35" cy="75.84" rx="12.22" ry="12.6"/>
        <polyline class="cls-1" points="238.35 75.84 274.58 82.83 238.35 75.84 202.12 68.86 238.35 75.84 231.58 113.19 238.35 75.84 245.12 38.5 238.35 75.84 238.93 75.84 238.35 75.84 237.78 75.84 238.35 75.84 238.35 76.44 238.35 75.84 238.35 75.25 238.35 75.84 277.9 106.43 238.35 75.84 198.8 45.25 238.35 75.84 208.68 116.61 238.35 75.84 299.87 0 238.35 75.84 268.55 106.39 238.35 75.84 208.16 45.3 238.35 75.84 208.72 106.97 238.35 75.84 267.98 44.72 238.35 75.84 252.96 98.57 238.35 75.84 223.75 53.11 238.35 75.84 216.3 90.9 238.35 75.84 260.4 60.79 238.35 75.84 244.88 75.14 238.35 75.84 231.82 76.55 238.35 75.84 239.03 82.57 238.35 75.84 237.67 69.12 238.35 75.84 292.83 75.32 238.35 75.84 183.87 76.36 238.35 75.84 238.86 132 238.35 75.84 237.84 19.69 238.35 75.84 241.33 75.97 238.35 75.84 235.37 75.71 238.35 75.84 238.22 78.91 238.35 75.84 238.48 72.77 238.35 75.84 253.2 68.66 238.35 75.84 223.5 83.02 238.35 75.84 245.32 91.15 238.35 75.84 231.38 60.53 238.35 75.84 245.44 83.32 238.35 75.84 231.26 68.37 238.35 75.84 231.1 83.16 238.35 75.84 245.6 68.53 238.35 75.84 285.54 98.59 238.35 75.84 191.16 53.1 238.35 75.84 216.29 124.49 238.35 75.84 260.41 27.2 238.35 75.84 242.53 75.51 238.35 75.84 234.17 76.18 238.35 75.84 238.68 80.15 238.35 75.84 238.02 71.53 238.35 75.84 271.16 67.12 238.35 75.84 205.54 84.56 238.35 75.84 246.81 109.66 238.35 75.84 229.89 42.02 238.35 75.84 238.94 76.39 238.35 75.84 237.76 75.3 238.35 75.84 237.82 76.45 238.35 75.84 238.88 75.24 238.35 75.84 240.51 79.07 238.35 75.84 236.19 72.61 238.35 75.84 235.22 78.07 238.35 75.84 241.48 73.61"/>
        <ellipse class="cls-88" cx="238.35" cy="75.84" rx="24.44" ry="25.19"/>
        <ellipse class="cls-89" cx="238.35" cy="75.84" rx="12.22" ry="12.6"/>
        <ellipse class="cls-90" cx="238.35" cy="75.84" rx="10.18" ry="10.5"/>
        <polyline class="cls-91" points="238.35 75.84 274.58 82.83 238.35 75.84 202.12 68.86 238.35 75.84 231.58 113.19 238.35 75.84 245.12 38.5 238.35 75.84 238.93 75.84 238.35 75.84 237.78 75.84 238.35 75.84 238.35 76.44 238.35 75.84 238.35 75.25 238.35 75.84 277.9 106.43 238.35 75.84 198.8 45.25 238.35 75.84 208.68 116.61 238.35 75.84 268.03 35.07 238.35 75.84 268.55 106.39 238.35 75.84 208.16 45.3 238.35 75.84 208.72 106.97 238.35 75.84 267.98 44.72 238.35 75.84 252.96 98.57 238.35 75.84 223.75 53.11 238.35 75.84 216.3 90.9 238.35 75.84 260.4 60.79 238.35 75.84 244.88 75.14 238.35 75.84 231.82 76.55 238.35 75.84 239.03 82.57 238.35 75.84 237.67 69.12 238.35 75.84 292.83 75.32 238.35 75.84 183.87 76.36 238.35 75.84 238.86 132 238.35 75.84 237.84 19.69 238.35 75.84 241.33 75.97 238.35 75.84 235.37 75.71 238.35 75.84 238.22 78.91 238.35 75.84 238.48 72.77 238.35 75.84 253.2 68.66 238.35 75.84 223.5 83.02 238.35 75.84 245.32 91.15 238.35 75.84 231.38 60.53 238.35 75.84 245.44 83.32 238.35 75.84 231.26 68.37 238.35 75.84 231.1 83.16 238.35 75.84 245.6 68.53 238.35 75.84 285.54 98.59 238.35 75.84 191.16 53.1 238.35 75.84 216.29 124.49 238.35 75.84 260.41 27.2 238.35 75.84 242.53 75.51 238.35 75.84 234.17 76.18 238.35 75.84 238.68 80.15 238.35 75.84 238.02 71.53 238.35 75.84 271.16 67.12 238.35 75.84 205.54 84.56 238.35 75.84 246.81 109.66 238.35 75.84 229.89 42.02 238.35 75.84 238.94 76.39 238.35 75.84 237.76 75.3 238.35 75.84 237.82 76.45 238.35 75.84 238.88 75.24 238.35 75.84 240.51 79.07 238.35 75.84 236.19 72.61 238.35 75.84 235.22 78.07 238.35 75.84 241.48 73.61"/>
      </g>
    </g>
  </g>
</svg>
