<?xml version="1.0" encoding="utf-8"?>
<!-- Generator: Adobe Illustrator 24.1.3, SVG Export Plug-In . SVG Version: 6.00 Build 0)  -->
<svg version="1.1" id="Monitor" xmlns="http://www.w3.org/2000/svg" xmlns:xlink="http://www.w3.org/1999/xlink" x="0px" y="0px"
	 viewBox="0 0 448.4 310.1" style="enable-background:new 0 0 448.4 310.1;" xml:space="preserve">
<style type="text/css">
	.st0{clip-path:url(#SVGID_2_);}
	.st1{fill:#707070;}
	.st2{fill:#747474;}
	.st3{fill:#787878;}
	.st4{fill:#7C7C7C;}
	.st5{clip-path:url(#SVGID_4_);}
	.st6{fill:#6C6C6C;}
	.st7{fill:#686868;}
	.st8{fill:#646464;}
	.st9{fill:#808080;}
	.st10{fill:#7D7D7D;}
	.st11{clip-path:url(#SVGID_6_);}
	.st12{fill:#7F7F7F;}
	.st13{fill:#838383;}
	.st14{fill:#878787;}
	.st15{fill:#8B8B8B;}
	.st16{fill:#A6A6A6;}
	.st17{fill:#868686;}
	.st18{fill:#898989;}
	.st19{fill:#979797;}
	.st20{clip-path:url(#SVGID_8_);}
	.st21{fill:#1C5465;}
	.st22{clip-path:url(#SVGID_10_);}
	.st23{clip-path:url(#SVGID_12_);}
	.st24{clip-path:url(#SVGID_14_);}
	.st25{clip-path:url(#SVGID_16_);}
	.st26{clip-path:url(#SVGID_18_);}
	.st27{fill:#828282;}
	.st28{clip-path:url(#SVGID_20_);}
	.st29{fill:#1D5668;}
	.st30{clip-path:url(#SVGID_22_);}
	.st31{clip-path:url(#SVGID_24_);}
	.st32{clip-path:url(#SVGID_26_);}
	.st33{clip-path:url(#SVGID_28_);}
	.st34{fill:#2D775D;}
	.st35{fill:#57E4B1;}
	.st36{clip-path:url(#SVGID_30_);}
	.st37{clip-path:url(#SVGID_32_);}
	.st38{clip-path:url(#SVGID_34_);}
	.st39{clip-path:url(#SVGID_36_);}
	.st40{fill:#848484;}
	.st41{clip-path:url(#SVGID_38_);}
	.st42{fill:#BFBFBF;}
	.st43{clip-path:url(#SVGID_40_);}
	.st44{clip-path:url(#SVGID_42_);}
	.st45{fill:#1B5263;}
	.st46{fill:#36A1C2;}
	.st47{clip-path:url(#SVGID_44_);}
	.st48{clip-path:url(#SVGID_46_);}
	.st49{fill:#23677D;}
	.st50{clip-path:url(#SVGID_48_);}
	.st51{clip-path:url(#SVGID_50_);}
	.st52{clip-path:url(#SVGID_52_);}
	.st53{clip-path:url(#SVGID_54_);}
	.st54{clip-path:url(#SVGID_56_);}
	.st55{clip-path:url(#SVGID_58_);}
	.st56{clip-path:url(#SVGID_60_);}
	.st57{fill:#23697E;}
	.st58{fill:#246A80;}
	.st59{fill:#246B82;}
	.st60{fill:#256D83;}
	.st61{clip-path:url(#SVGID_62_);}
	.st62{clip-path:url(#SVGID_64_);}
	.st63{fill:#ACACAC;}
	.st64{clip-path:url(#SVGID_66_);}
	.st65{clip-path:url(#SVGID_68_);}
	.st66{fill:#AEAEAE;}
	.st67{fill:#B0B0B0;}
	.st68{fill:#B3B3B3;}
	.st69{clip-path:url(#SVGID_70_);}
	.st70{clip-path:url(#SVGID_72_);}
	.st71{fill:#48B88D;}
	.st72{fill:#49BA8F;}
	.st73{fill:#4ABD91;}
	.st74{fill:#4BBF92;}
	.st75{clip-path:url(#SVGID_74_);}
	.st76{fill:#47B68B;}
	.st77{clip-path:url(#SVGID_76_);}
	.st78{clip-path:url(#SVGID_78_);}
	.st79{fill:#B5B5B5;}
	.st80{clip-path:url(#SVGID_80_);}
	.st81{fill:#256E85;}
	.st82{clip-path:url(#SVGID_82_);}
	.st83{clip-path:url(#SVGID_84_);}
	.st84{clip-path:url(#SVGID_86_);}
	.st85{clip-path:url(#SVGID_88_);}
	.st86{fill:#FCFCFC;}
	.st87{fill:#5BE8B2;}
	.st88{clip-path:url(#SVGID_90_);}
	.st89{fill:#23677C;}
	.st90{fill:#C5BF8B;}
	.st91{fill:#B7B181;}
	.st92{fill:#2D849F;}
	.st93{fill:#DCDCDC;}
	.st94{clip-path:url(#SVGID_92_);}
	.st95{fill:#ECE4A6;}
	.st96{clip-path:url(#SVGID_94_);}
	.st97{fill:#FFFFFF;}
	.st98{font-family:'SegoeUI';}
	.st99{font-size:18.8639px;}
</style>
<g>
	<g>
		<g>
			<defs>
				<path id="SVGID_1_" d="M219.2,235.4v1.6c0,1.2-0.2,2.5-0.7,3.6V239C219,237.9,219.2,236.7,219.2,235.4z"/>
			</defs>
			<clipPath id="SVGID_2_">
				<use xlink:href="#SVGID_1_"  style="overflow:visible;"/>
			</clipPath>
			<g class="st0">
				<g>
					<path class="st1" d="M219.2,235.4L219.2,235.4"/>
					<path class="st2" d="M219.2,235.5v1.6c0,0.5,0,1-0.1,1.5V237C219.2,236.5,219.2,236,219.2,235.5"/>
					<path class="st3" d="M219.1,237v1.6c-0.1,0.5-0.2,1-0.4,1.5v-1.6C218.9,238,219,237.5,219.1,237"/>
					<path class="st4" d="M218.7,238.4v1.6c-0.1,0.2-0.1,0.4-0.2,0.6V239C218.6,238.8,218.7,238.6,218.7,238.4"/>
				</g>
			</g>
		</g>
	</g>
	<g>
		<g>
			<defs>
				<path id="SVGID_3_" d="M58.8,254.1v-1.6c0.1,6.7,7.9,12.7,19.5,14.3v1.6C66.6,266.8,58.8,260.8,58.8,254.1z"/>
			</defs>
			<clipPath id="SVGID_4_">
				<use xlink:href="#SVGID_3_"  style="overflow:visible;"/>
			</clipPath>
			<g class="st5">
				<g>
					<path class="st1" d="M78.2,266.8v1.6c-0.7-0.1-1.5-0.2-2.2-0.4v-1.6C76.8,266.5,77.5,266.7,78.2,266.8"/>
					<path class="st6" d="M76.1,266.4v1.6c-0.9-0.2-1.8-0.4-2.7-0.6v-1.6C74.2,266,75.1,266.2,76.1,266.4"/>
					<path class="st7" d="M73.3,265.8v1.6c-1.1-0.3-2.1-0.6-3.1-1v-1.6C71.2,265.2,72.3,265.5,73.3,265.8"/>
					<path class="st8" d="M70.3,264.8v1.6c-7.1-2.7-11.4-7.3-11.5-12.3v-1.6C58.8,257.5,63.2,262.1,70.3,264.8"/>
				</g>
			</g>
		</g>
	</g>
	<polygon class="st9" points="218.5,239 218.5,240.6 206.2,270.4 206.2,268.8 	"/>
	<polygon class="st10" points="175.5,279.9 175.5,281.5 78.2,268.4 78.2,266.8 	"/>
	<g>
		<g>
			<defs>
				<path id="SVGID_5_" d="M206.2,268.8v1.6c-3.3,8-17.1,13-30.7,11.2v-1.6C189.2,281.8,202.9,276.8,206.2,268.8z"/>
			</defs>
			<clipPath id="SVGID_6_">
				<use xlink:href="#SVGID_5_"  style="overflow:visible;"/>
			</clipPath>
			<g class="st11">
				<g>
					<path class="st4" d="M206.2,268.8v1.6c-0.1,0.3-0.3,0.6-0.4,0.9v-1.6C206,269.4,206.1,269.1,206.2,268.8"/>
					<path class="st12" d="M205.8,269.7v1.6c-0.3,0.5-0.6,1.1-1,1.6v-1.6C205.2,270.8,205.5,270.3,205.8,269.7"/>
					<path class="st13" d="M204.8,271.3v1.6c-0.5,0.6-1,1.2-1.5,1.7V273C203.8,272.4,204.4,271.8,204.8,271.3"/>
					<path class="st14" d="M203.3,273v1.6c-1,0.9-2,1.7-3.1,2.5v-1.6C201.3,274.7,202.3,273.9,203.3,273"/>
					<path class="st15" d="M200.2,275.4v1.6c-1.9,1.2-3.8,2.1-5.9,2.8v-1.6C196.3,277.5,198.3,276.6,200.2,275.4"/>
					<path class="st14" d="M194.2,278.3v1.6c-1.6,0.5-3.2,1-4.8,1.3v-1.6C191.1,279.2,192.7,278.8,194.2,278.3"/>
					<path class="st13" d="M189.5,279.5v1.6c-1,0.2-2.1,0.4-3.2,0.5V280C187.4,279.9,188.4,279.7,189.5,279.5"/>
					<path class="st12" d="M186.3,280v1.6c-0.9,0.1-1.9,0.2-2.8,0.2v-1.6C184.4,280.2,185.4,280.1,186.3,280"/>
					<path class="st4" d="M183.5,280.3v1.6c-0.9,0-1.7,0.1-2.6,0v-1.6C181.8,280.3,182.7,280.3,183.5,280.3"/>
					<path class="st3" d="M180.9,280.3v1.6c-0.8,0-1.7,0-2.5-0.1v-1.6C179.2,280.2,180.1,280.3,180.9,280.3"/>
					<path class="st2" d="M178.4,280.3v1.6c-0.8,0-1.7-0.1-2.5-0.2V280C176.8,280.1,177.6,280.2,178.4,280.3"/>
					<path class="st1" d="M175.9,280v1.6l-0.4,0v-1.6L175.9,280"/>
				</g>
			</g>
		</g>
	</g>
	<path class="st16" d="M199.8,221.2c13.7,1.9,22,9.9,18.7,17.9l-12.3,29.7c-3.3,8-17.1,13-30.7,11.2l-97.3-13.2
		c-13.6-1.8-22-9.8-18.7-17.9l12.3-29.7c3.3-8,17.1-13,30.7-11.2L199.8,221.2z"/>
</g>
<g>
	<polygon class="st17" points="146.4,242 128.2,239.7 129.2,85 147.5,87.4 	"/>
	<polygon class="st17" points="123.8,101.9 105.5,99.5 105.7,68.8 124,71.1 	"/>
	<polygon class="st18" points="124,71.1 105.7,68.8 141.3,47 159.5,49.3 	"/>
	<polygon class="st19" points="159.5,49.3 158.3,234.8 146.4,242 147.5,87.4 123.8,101.9 124,71.1 	"/>
</g>
<g id="Monitor_top">
	<g>
		<g>
			<g>
				<defs>
					<path id="SVGID_7_" d="M21.3,147.1l-1.8,1.9c-0.6-0.4-1.2-0.9-1.8-1.4l0.2-0.2l0.2-0.2l0.2-0.2l0.2-0.3l0.9-0.9
						C20,146.2,20.6,146.7,21.3,147.1z"/>
				</defs>
				<clipPath id="SVGID_8_">
					<use xlink:href="#SVGID_7_"  style="overflow:visible;"/>
				</clipPath>
				<g class="st20">
					<g>
						<path class="st21" d="M15.5,142l1.8-1.9c0.1,4.3,3.4,7.9,7.7,8.3l-1.8,1.9C18.9,149.9,15.5,146.3,15.5,142"/>
					</g>
				</g>
			</g>
		</g>
		<g>
			<g>
				<defs>
					<path id="SVGID_9_" d="M18.7,144.7c0.2,0.3,0.5,0.7,0.8,0.9l-1.8,1.9c-0.3-0.3-0.5-0.6-0.8-0.9l1.1-1.1L18.7,144.7z"/>
				</defs>
				<clipPath id="SVGID_10_">
					<use xlink:href="#SVGID_9_"  style="overflow:visible;"/>
				</clipPath>
				<g class="st22">
					<g>
						<path class="st21" d="M15.5,142l1.8-1.9c0.1,4.3,3.4,7.9,7.7,8.3l-1.8,1.9C18.9,149.9,15.5,146.3,15.5,142"/>
					</g>
				</g>
			</g>
		</g>
		<g>
			<g>
				<defs>
					<path id="SVGID_11_" d="M18.7,144.7l-1.8,1.9c-0.3-0.5-0.6-1.1-0.9-1.6l0.2-0.2l0.2-0.2l0.2-0.2l0.2-0.3l0.2-0.2l0.2-0.2
						l0.2-0.2l0.2-0.2C18.1,143.7,18.4,144.2,18.7,144.7z"/>
				</defs>
				<clipPath id="SVGID_12_">
					<use xlink:href="#SVGID_11_"  style="overflow:visible;"/>
				</clipPath>
				<g class="st23">
					<g>
						<path class="st21" d="M15.5,142l1.8-1.9c0.1,4.3,3.4,7.9,7.7,8.3l-1.8,1.9C18.9,149.9,15.5,146.3,15.5,142"/>
					</g>
				</g>
			</g>
		</g>
		<g>
			<g>
				<defs>
					<path id="SVGID_13_" d="M17.3,140.1c0,1,0.2,2,0.6,3l-1.8,1.9c-0.4-1-0.6-2-0.6-3L17.3,140.1z"/>
				</defs>
				<clipPath id="SVGID_14_">
					<use xlink:href="#SVGID_13_"  style="overflow:visible;"/>
				</clipPath>
				<g class="st24">
					<g>
						<path class="st21" d="M15.5,142l1.8-1.9c0.1,4.3,3.4,7.9,7.7,8.3l-1.8,1.9C18.9,149.9,15.5,146.3,15.5,142"/>
					</g>
				</g>
			</g>
		</g>
		<g>
			<g>
				<defs>
					<path id="SVGID_15_" d="M17.6,18.9l1.8-1.9c-1.2,1.3-1.9,3.1-1.9,4.9l-1.8,1.9C15.7,22,16.4,20.2,17.6,18.9z"/>
				</defs>
				<clipPath id="SVGID_16_">
					<use xlink:href="#SVGID_15_"  style="overflow:visible;"/>
				</clipPath>
				<g class="st25">
					<g>
						<path class="st21" d="M17.6,18.9l1.8-1.9c-1.2,1.3-1.9,3.1-1.9,4.9l-1.8,1.9C15.7,22,16.4,20.2,17.6,18.9"/>
					</g>
				</g>
			</g>
		</g>
		<g>
			<g>
				<defs>
					<path id="SVGID_17_" d="M17.6,18.9l1.8-1.9c1.5-1.6,3.7-2.4,5.8-2.2l-1.7,1.9C21.3,16.5,19.1,17.3,17.6,18.9z"/>
				</defs>
				<clipPath id="SVGID_18_">
					<use xlink:href="#SVGID_17_"  style="overflow:visible;"/>
				</clipPath>
				<g class="st26">
					<g>
						<path class="st27" d="M17.6,18.9l1.8-1.9c1.5-1.6,3.7-2.4,5.8-2.2l-1.7,1.9C21.3,16.5,19.2,17.3,17.6,18.9"/>
					</g>
				</g>
			</g>
		</g>
		<g>
			<g>
				<defs>
					<path id="SVGID_19_" d="M4.8,7.3l1.8-1.9c3.6-3.8,8.8-5.8,14-5.3L18.8,2C13.6,1.5,8.4,3.5,4.8,7.3z"/>
				</defs>
				<clipPath id="SVGID_20_">
					<use xlink:href="#SVGID_19_"  style="overflow:visible;"/>
				</clipPath>
				<g class="st28">
					<g>
						<path class="st21" d="M4.8,7.3l1.8-1.9c3.6-3.8,8.8-5.8,14-5.3L18.8,2C13.6,1.5,8.4,3.5,4.8,7.3"/>
					</g>
				</g>
			</g>
		</g>
		<polygon class="st29" points="23.2,150.2 25,148.3 247.6,164.8 245.8,166.7 		"/>
		<g>
			<g>
				<defs>
					<path id="SVGID_21_" d="M254.3,170.6c0,1.4,1.1,2.5,2.4,2.6l-1.8,1.9c-1.3-0.1-2.4-1.2-2.4-2.6
						C253.2,171.8,253.7,171.2,254.3,170.6z"/>
				</defs>
				<clipPath id="SVGID_22_">
					<use xlink:href="#SVGID_21_"  style="overflow:visible;"/>
				</clipPath>
				<g class="st30">
					<g>
						<path class="st21" d="M253.2,170.9l1.8-1.9c-0.4,0.4-0.6,1-0.6,1.5c0,1.4,1.1,2.5,2.4,2.6l-1.8,1.9c-1.3-0.1-2.4-1.2-2.4-2.6
							C252.6,171.9,252.8,171.4,253.2,170.9"/>
					</g>
				</g>
			</g>
		</g>
		<g>
			<g>
				<defs>
					<path id="SVGID_23_" d="M254.3,170.6C254.3,170.6,254.3,170.6,254.3,170.6l-0.9,1L253,172l-0.4,0.5c0-0.6,0.2-1.1,0.6-1.5
						l1.8-1.9C254.5,169.5,254.3,170,254.3,170.6z"/>
				</defs>
				<clipPath id="SVGID_24_">
					<use xlink:href="#SVGID_23_"  style="overflow:visible;"/>
				</clipPath>
				<g class="st31">
					<g>
						<path class="st21" d="M253.2,170.9l1.8-1.9c-0.4,0.4-0.6,1-0.6,1.5c0,1.4,1.1,2.5,2.4,2.6l-1.8,1.9c-1.3-0.1-2.4-1.2-2.4-2.6
							C252.6,171.9,252.8,171.4,253.2,170.9"/>
					</g>
				</g>
			</g>
		</g>
		<g>
			<g>
				<defs>
					<path id="SVGID_25_" d="M256.7,173.2c0.7,0.1,1.4-0.2,1.8-0.7l-1.8,1.9c-0.5,0.5-1.1,0.7-1.8,0.7L256.7,173.2z"/>
				</defs>
				<clipPath id="SVGID_26_">
					<use xlink:href="#SVGID_25_"  style="overflow:visible;"/>
				</clipPath>
				<g class="st32">
					<g>
						<path class="st21" d="M255,175.1l1.8-1.9c0.7,0.1,1.4-0.2,1.8-0.7l-1.8,1.9C256.3,174.9,255.7,175.1,255,175.1"/>
					</g>
				</g>
			</g>
		</g>
		<g>
			<g>
				<defs>
					<path id="SVGID_27_" d="M253.2,170.9l1.8-1.9c0.5-0.5,1.1-0.7,1.8-0.7l-1.8,1.9C254.3,170.2,253.6,170.5,253.2,170.9z"/>
				</defs>
				<clipPath id="SVGID_28_">
					<use xlink:href="#SVGID_27_"  style="overflow:visible;"/>
				</clipPath>
				<g class="st33">
					<g>
						<path class="st34" d="M253.2,170.9l1.8-1.9c0.5-0.5,1.1-0.7,1.8-0.7l-1.8,1.9C254.3,170.2,253.6,170.5,253.2,170.9"/>
					</g>
				</g>
			</g>
		</g>
		<path class="st35" d="M255,170.3c1.3,0.1,2.4,1.2,2.4,2.6c0,1.2-1,2.2-2.2,2.2c-0.1,0-0.2,0-0.3,0c-1.3-0.1-2.4-1.2-2.4-2.6
			c0-1.2,1-2.2,2.2-2.2C254.8,170.3,254.9,170.3,255,170.3z"/>
		<g>
			<g>
				<defs>
					<path id="SVGID_29_" d="M258.6,172.5l-1.8,1.9c0.4-0.4,0.6-1,0.6-1.5c0-1.4-1.1-2.5-2.4-2.6l1.8-1.9c1.4,0.1,2.4,1.2,2.4,2.6
						C259.2,171.5,259,172.1,258.6,172.5z"/>
				</defs>
				<clipPath id="SVGID_30_">
					<use xlink:href="#SVGID_29_"  style="overflow:visible;"/>
				</clipPath>
				<g class="st36">
					<g>
						<path class="st34" d="M255,170.3l1.8-1.9c1.4,0.1,2.4,1.2,2.4,2.6c0,0.6-0.2,1.1-0.6,1.5l-1.8,1.9c0.4-0.4,0.6-1,0.6-1.5
							C257.4,171.5,256.3,170.4,255,170.3"/>
					</g>
				</g>
			</g>
		</g>
		<g>
			<g>
				<defs>
					<path id="SVGID_31_" d="M253.4,162.6l-1.8,1.9c-1.5,1.6-3.7,2.4-5.9,2.2l1.8-1.9C249.8,165,251.9,164.2,253.4,162.6z"/>
				</defs>
				<clipPath id="SVGID_32_">
					<use xlink:href="#SVGID_31_"  style="overflow:visible;"/>
				</clipPath>
				<g class="st37">
					<g>
						<path class="st21" d="M245.8,166.7l1.8-1.9c2.2,0.2,4.3-0.6,5.9-2.2l-1.8,1.9C250.1,166.1,248,166.9,245.8,166.7"/>
					</g>
				</g>
			</g>
		</g>
		<g>
			<g>
				<defs>
					<path id="SVGID_33_" d="M253.4,162.6l-1.8,1.9c1.2-1.3,1.9-3.1,1.9-4.9l1.8-1.9C255.3,159.5,254.7,161.3,253.4,162.6z"/>
				</defs>
				<clipPath id="SVGID_34_">
					<use xlink:href="#SVGID_33_"  style="overflow:visible;"/>
				</clipPath>
				<g class="st38">
					<g>
						<path class="st27" d="M253.6,159.6l1.8-1.9c0,1.8-0.7,3.6-1.9,4.9l-1.8,1.9C252.9,163.2,253.6,161.4,253.6,159.6"/>
					</g>
				</g>
			</g>
		</g>
		<g>
			<g>
				<defs>
					<path id="SVGID_35_" d="M267.2,175.3l-1.8,1.9c3-3.2,4.6-7.4,4.6-11.7l1.8-1.9C271.8,167.9,270.2,172.1,267.2,175.3z"/>
				</defs>
				<clipPath id="SVGID_36_">
					<use xlink:href="#SVGID_35_"  style="overflow:visible;"/>
				</clipPath>
				<g class="st39">
					<g>
						<path class="st21" d="M270,165.4l1.8-1.9c0,4.3-1.6,8.5-4.6,11.7l-1.8,1.9C268.4,174,270,169.8,270,165.4"/>
					</g>
				</g>
			</g>
		</g>
		<polygon class="st9" points="253.8,41.4 255.5,39.5 255.3,157.7 253.6,159.6 		"/>
		<polygon class="st40" points="23.5,16.7 25.2,14.8 247.8,31.3 246.1,33.2 		"/>
		<g>
			<g>
				<defs>
					<path id="SVGID_37_" d="M246,33.2l1.8-1.9c4.3,0.4,7.7,3.9,7.7,8.3l-1.8,1.9C253.7,37.1,250.4,33.5,246,33.2z"/>
				</defs>
				<clipPath id="SVGID_38_">
					<use xlink:href="#SVGID_37_"  style="overflow:visible;"/>
				</clipPath>
				<g class="st41">
					<g>
						<path class="st27" d="M246,33.2l1.8-1.9c4.3,0.4,7.7,3.9,7.7,8.3l-1.8,1.9C253.7,37.1,250.4,33.5,246,33.2"/>
					</g>
				</g>
			</g>
		</g>
		<g>
			<path class="st42" d="M246,33.2c4.3,0.4,7.7,3.9,7.7,8.3l-0.2,118.1c0,3.9-3.1,7.1-7,7.1c-0.2,0-0.5,0-0.7,0L23.2,150.3
				c-4.3-0.4-7.7-4-7.7-8.3l0.2-118.2c0-3.9,3.1-7.1,7-7.1c0.3,0,0.5,0,0.8,0L246,33.2z"/>
			<g>
				<g>
					<defs>
						<path id="SVGID_39_" d="M246,33.2c4.3,0.4,7.7,3.9,7.7,8.3l-0.2,118.1c0,3.9-3.1,7.1-7,7.1c-0.2,0-0.5,0-0.7,0L23.2,150.3
							c-4.3-0.4-7.7-4-7.7-8.3l0.2-118.2c0-3.9,3.1-7.1,7-7.1c0.3,0,0.5,0,0.8,0L246,33.2z"/>
					</defs>
					<clipPath id="SVGID_40_">
						<use xlink:href="#SVGID_39_"  style="overflow:visible;"/>
					</clipPath>
					<g class="st43">
						<g>
							<defs>
								<polyline id="SVGID_41_" points="253.6,159.6 253.6,159.6 253.4,161.1 253,162.5 252.2,163.8 251.3,164.9 250.1,165.7 
									248.8,166.3 247.4,166.6 245.8,166.7 23.2,150.2 21.7,149.9 20.2,149.4 18.9,148.6 17.8,147.6 16.8,146.4 16.1,145 
									15.6,143.5 15.5,142 15.7,23.8 15.9,22.3 16.3,20.9 17,19.6 18,18.5 19.1,17.7 20.4,17.1 21.9,16.7 23.5,16.7 246,33.2 
									247.6,33.4 249.1,34 250.4,34.8 251.5,35.8 252.5,37 253.2,38.4 253.6,39.9 253.8,41.4 253.6,159.6 								"/>
							</defs>
							<clipPath id="SVGID_42_">
								<use xlink:href="#SVGID_41_"  style="overflow:visible;"/>
							</clipPath>
							<g class="st44">
								
									<image style="overflow:visible;enable-background:new    ;" width="239" height="151" xlink:href="EEC45B50.png"  transform="matrix(1 0 0 1 15.49 16.69)">
								</image>
							</g>
						</g>
					</g>
				</g>
			</g>
		</g>
		<polygon class="st45" points="270.2,39 272,37.1 271.8,163.6 270,165.4 		"/>
		<polygon class="st29" points="18.8,1.9 20.6,0.1 253.5,17.3 251.7,19.2 		"/>
		<path class="st46" d="M251.7,19.2c10.3,0.9,18.3,9.4,18.5,19.8L270,165.4c0,9.4-7.5,17-16.9,17.1c-0.6,0-1.1,0-1.7-0.1L18.5,165.3
			C8.2,164.4,0.1,155.8,0,145.5L0.2,19c0-9.4,7.5-17,16.9-17.1c0.6,0,1.1,0,1.7,0.1L251.7,19.2z M245.8,166.7
			c3.9,0.4,7.4-2.5,7.7-6.4c0-0.2,0-0.5,0-0.7l0.2-118.1c-0.1-4.3-3.4-7.9-7.7-8.3L23.5,16.7c-3.9-0.4-7.4,2.5-7.7,6.4
			c0,0.2,0,0.5,0,0.7L15.5,142c0,4.3,3.4,7.9,7.7,8.3L245.8,166.7 M255,175.1c1.2,0.1,2.3-0.8,2.4-2c0-0.1,0-0.2,0-0.3
			c0-1.3-1.1-2.5-2.4-2.6c-1.2-0.1-2.3,0.8-2.4,2c0,0.1,0,0.2,0,0.3C252.6,173.8,253.6,174.9,255,175.1"/>
		<g>
			<g>
				<defs>
					<path id="SVGID_43_" d="M251.7,19.2l1.8-1.9c10.3,0.9,18.3,9.4,18.5,19.8l-1.8,1.9C270.1,28.6,262.1,20,251.7,19.2z"/>
				</defs>
				<clipPath id="SVGID_44_">
					<use xlink:href="#SVGID_43_"  style="overflow:visible;"/>
				</clipPath>
				<g class="st47">
					<g>
						<path class="st21" d="M251.7,19.2l1.8-1.9c10.3,0.9,18.3,9.4,18.5,19.8l-1.8,1.9C270.1,28.6,262.1,20,251.7,19.2"/>
					</g>
				</g>
			</g>
		</g>
	</g>
</g>
<g id="Machine">
	<g>
		<g>
			<g>
				<defs>
					<polygon id="SVGID_45_" points="421,241.4 421,241.4 382.4,275.1 382.4,275.1 					"/>
				</defs>
				<clipPath id="SVGID_46_">
					<use xlink:href="#SVGID_45_"  style="overflow:visible;"/>
				</clipPath>
				<g class="st48">
					<g>
						<path class="st49" d="M382.4,274.6l38.6-33.6c0,0.2,0,0.3,0,0.5c0,0.8,0.2,1.6,0.5,2.3l-38.6,33.6c-0.3-0.7-0.5-1.5-0.5-2.3
							C382.4,274.9,382.4,274.7,382.4,274.6"/>
					</g>
				</g>
			</g>
		</g>
		<g>
			<g>
				<defs>
					<path id="SVGID_47_" d="M421,241.4L382.4,275c0-0.2,0-0.3,0-0.5l4.5-3.9l4.8-4.2l5-4.3l5-4.4l5-4.4l5-4.3l4.8-4.2l4.5-3.9
						l-38.4,33.6l0,0l38.6-33.6C421,241.1,421,241.3,421,241.4z"/>
				</defs>
				<clipPath id="SVGID_48_">
					<use xlink:href="#SVGID_47_"  style="overflow:visible;"/>
				</clipPath>
				<g class="st50">
					<g>
						<path class="st49" d="M382.4,274.6l38.6-33.6c0,0.2,0,0.3,0,0.5c0,0.8,0.2,1.6,0.5,2.3l-38.6,33.6c-0.3-0.7-0.5-1.5-0.5-2.3
							C382.4,274.9,382.4,274.7,382.4,274.6"/>
					</g>
				</g>
			</g>
		</g>
		<g>
			<g>
				<defs>
					<path id="SVGID_49_" d="M421,240.5c0,0.2,0,0.3,0,0.5l-38.5,33.6c0-0.2,0-0.3,0-0.5L421,240.5z"/>
				</defs>
				<clipPath id="SVGID_50_">
					<use xlink:href="#SVGID_49_"  style="overflow:visible;"/>
				</clipPath>
				<g class="st51">
					<g>
						<path class="st49" d="M383.9,270.7l38.6-33.6c-1,0.9-1.5,2.1-1.5,3.4c0,0.2,0,0.3,0,0.5l-38.5,33.6c0-0.2,0-0.3,0-0.5
							C382.4,272.8,383,271.5,383.9,270.7"/>
					</g>
				</g>
			</g>
		</g>
		<g>
			<g>
				<defs>
					<polygon id="SVGID_51_" points="421,240.5 382.4,274.1 382.4,274.1 386.9,270.2 391.7,266 396.6,261.7 401.7,257.3 
						406.7,252.9 411.7,248.5 416.5,244.4 421,240.4 421,240.4 					"/>
				</defs>
				<clipPath id="SVGID_52_">
					<use xlink:href="#SVGID_51_"  style="overflow:visible;"/>
				</clipPath>
				<g class="st52">
					<g>
						<path class="st49" d="M383.9,270.7l38.6-33.6c-1,0.9-1.5,2.1-1.5,3.4c0,0.2,0,0.3,0,0.5l-38.5,33.6c0-0.2,0-0.3,0-0.5
							C382.4,272.8,383,271.5,383.9,270.7"/>
					</g>
				</g>
			</g>
		</g>
		<g>
			<g>
				<defs>
					<path id="SVGID_53_" d="M421,240.1c0,0.1,0,0.3,0,0.4l-38.6,33.6c0-0.1,0-0.3,0-0.4L421,240.1z"/>
				</defs>
				<clipPath id="SVGID_54_">
					<use xlink:href="#SVGID_53_"  style="overflow:visible;"/>
				</clipPath>
				<g class="st53">
					<g>
						<path class="st49" d="M383.9,270.7l38.6-33.6c-1,0.9-1.5,2.1-1.5,3.4c0,0.2,0,0.3,0,0.5l-38.5,33.6c0-0.2,0-0.3,0-0.5
							C382.4,272.8,383,271.5,383.9,270.7"/>
					</g>
				</g>
			</g>
		</g>
		<g>
			<g>
				<defs>
					<path id="SVGID_55_" d="M421,240.1c-0.3,0.7-1.3,1.1-1.9,1.6l-2,1.8l-34.7,30.2c0,0,0-0.1,0-0.1l38.6-33.6
						C421,239.9,421,240,421,240.1z"/>
				</defs>
				<clipPath id="SVGID_56_">
					<use xlink:href="#SVGID_55_"  style="overflow:visible;"/>
				</clipPath>
				<g class="st54">
					<g>
						<path class="st49" d="M383.9,270.7l38.6-33.6c-1,0.9-1.5,2.1-1.5,3.4c0,0.2,0,0.3,0,0.5l-38.5,33.6c0-0.2,0-0.3,0-0.5
							C382.4,272.8,383,271.5,383.9,270.7"/>
					</g>
				</g>
			</g>
		</g>
		<g>
			<g>
				<defs>
					<path id="SVGID_57_" d="M421.1,239.6c0,0.1,0,0.2,0,0.4l-38.6,33.6c0-0.1,0-0.2,0-0.4l1.5-1.3l1.6-1.4l1.6-1.4l1.7-1.5l1.7-1.5
						l1.6-1.4l1.6-1.4l1.5-1.3l3-2.6l3.2-2.8l3.3-2.9l3.4-3l3.4-2.9l3.3-2.9l3.2-2.8C419,241.4,420.1,240.4,421.1,239.6z"/>
				</defs>
				<clipPath id="SVGID_58_">
					<use xlink:href="#SVGID_57_"  style="overflow:visible;"/>
				</clipPath>
				<g class="st55">
					<g>
						<path class="st49" d="M383.9,270.7l38.6-33.6c-1,0.9-1.5,2.1-1.5,3.4c0,0.2,0,0.3,0,0.5l-38.5,33.6c0-0.2,0-0.3,0-0.5
							C382.4,272.8,383,271.5,383.9,270.7"/>
					</g>
				</g>
			</g>
		</g>
		<g>
			<g>
				<defs>
					<path id="SVGID_59_" d="M425.8,246.6c1.2,0.1,2.4-0.3,3.3-1.1l-38.6,33.6c-0.9,0.8-2.1,1.2-3.3,1.1L425.8,246.6l-38.6,33.6
						c-2.7-0.2-4.8-2.5-4.8-5.2l4.5-3.9l4.8-4.2l5-4.3l5-4.4l19.3-16.8C421,244.1,423.1,246.4,425.8,246.6z"/>
				</defs>
				<clipPath id="SVGID_60_">
					<use xlink:href="#SVGID_59_"  style="overflow:visible;"/>
				</clipPath>
				<g class="st56">
					<g>
						<path class="st49" d="M382.4,274.6l38.6-33.6c0,0.2,0,0.3,0,0.5c0,0.8,0.2,1.6,0.5,2.3l-38.6,33.6c-0.3-0.7-0.5-1.5-0.5-2.3
							C382.4,274.9,382.4,274.7,382.4,274.6"/>
						<path class="st57" d="M382.9,277.3l38.6-33.6c0.2,0.4,0.4,0.8,0.7,1.1l-38.6,33.6C383.4,278.1,383.1,277.7,382.9,277.3"/>
						<path class="st58" d="M383.6,278.4l38.6-33.6c0.3,0.3,0.6,0.6,1,0.9l-38.6,33.6C384.2,279,383.9,278.7,383.6,278.4"/>
						<path class="st59" d="M384.6,279.3l38.6-33.6c0.6,0.4,1.3,0.7,2,0.9l-38.6,33.6C385.9,280,385.2,279.7,384.6,279.3"/>
						<path class="st60" d="M386.6,280.2l38.6-33.6c0.2,0,0.4,0.1,0.6,0.1h0.1l-38.6,33.6h-0.1C387,280.3,386.8,280.2,386.6,280.2"
							/>
						<path class="st59" d="M387.3,280.3l38.6-33.6c0.7,0,1.4-0.1,2.1-0.4l-38.6,33.6C388.8,280.2,388,280.3,387.3,280.3"/>
						<path class="st58" d="M389.4,279.9l38.6-33.6c0.4-0.2,0.7-0.4,1-0.6l-38.5,33.6C390.2,279.5,389.9,279.8,389.4,279.9"/>
						<path class="st57" d="M390.5,279.3l38.6-33.6l0,0L390.5,279.3L390.5,279.3"/>
					</g>
				</g>
			</g>
		</g>
		<g>
			<g>
				<defs>
					<path id="SVGID_61_" d="M421.1,239.6c-0.6,1-2.1,1.9-3,2.6l-9.9,8.6l-12.9,11.3l-12.8,11.2c0.2-1,0.7-1.9,1.4-2.5l38.6-33.7
						C421.7,237.7,421.2,238.6,421.1,239.6z"/>
				</defs>
				<clipPath id="SVGID_62_">
					<use xlink:href="#SVGID_61_"  style="overflow:visible;"/>
				</clipPath>
				<g class="st61">
					<g>
						<path class="st49" d="M383.9,270.7l38.6-33.6c-1,0.9-1.5,2.1-1.5,3.4c0,0.2,0,0.3,0,0.5l-38.5,33.6c0-0.2,0-0.3,0-0.5
							C382.4,272.8,383,271.5,383.9,270.7"/>
					</g>
				</g>
			</g>
		</g>
		<g>
			<g>
				<defs>
					<path id="SVGID_63_" d="M422.5,238c-0.9,0.8-1.4,1.8-1.5,2.9l-38.6,33.6c0.1-1.1,0.6-2.2,1.5-2.9L422.5,238z"/>
				</defs>
				<clipPath id="SVGID_64_">
					<use xlink:href="#SVGID_63_"  style="overflow:visible;"/>
				</clipPath>
				<g class="st62">
					<g>
						<path class="st63" d="M383.9,271.6l38.6-33.6c-0.9,0.8-1.4,1.8-1.5,2.9l-38.6,33.6C382.5,273.4,383.1,272.4,383.9,271.6"/>
					</g>
				</g>
			</g>
		</g>
		<g>
			<g>
				<defs>
					<path id="SVGID_65_" d="M444.2,273.9l-38.6,33.6c2.3-2.1,3.7-5.1,3.7-8.2l38.6-33.6C447.9,268.8,446.5,271.8,444.2,273.9z"/>
				</defs>
				<clipPath id="SVGID_66_">
					<use xlink:href="#SVGID_65_"  style="overflow:visible;"/>
				</clipPath>
				<g class="st64">
					<g>
						<path class="st49" d="M409.3,299.3l38.6-33.6c0,3.1-1.3,6.1-3.7,8.2l-38.6,33.6C408,305.4,409.3,302.4,409.3,299.3"/>
					</g>
				</g>
			</g>
		</g>
		<g>
			<g>
				<defs>
					<path id="SVGID_67_" d="M422.5,237c0.4-0.4,0.9-0.6,1.4-0.8l-38.6,33.6c-0.5,0.2-1,0.5-1.4,0.8L422.5,237z"/>
				</defs>
				<clipPath id="SVGID_68_">
					<use xlink:href="#SVGID_67_"  style="overflow:visible;"/>
				</clipPath>
				<g class="st65">
					<g>
						<path class="st66" d="M383.9,270.7l38.6-33.6l0,0L383.9,270.7L383.9,270.7"/>
						<path class="st67" d="M384,270.6l38.5-33.6c0.3-0.3,0.6-0.5,1-0.6L385,270C384.6,270.2,384.3,270.4,384,270.6"/>
						<path class="st68" d="M385,270l38.6-33.6c0.7-0.3,1.4-0.4,2.1-0.4l-38.6,33.6C386.4,269.6,385.7,269.7,385,270"/>
					</g>
				</g>
			</g>
		</g>
		<g>
			<g>
				<defs>
					<polygon id="SVGID_69_" points="423.9,236.2 385.4,269.8 385.4,269.8 423.9,236.3 					"/>
				</defs>
				<clipPath id="SVGID_70_">
					<use xlink:href="#SVGID_69_"  style="overflow:visible;"/>
				</clipPath>
				<g class="st69">
					<g>
						<path class="st68" d="M385,270l38.6-33.6c0.7-0.3,1.4-0.4,2.1-0.4l-38.6,33.6C386.4,269.6,385.7,269.7,385,270"/>
					</g>
				</g>
			</g>
		</g>
		<g>
			<g>
				<defs>
					<path id="SVGID_71_" d="M383.9,271.6l38.6-33.6c0.9-0.8,2.1-1.2,3.3-1.1l-38.6,33.6C386,270.5,384.8,270.9,383.9,271.6z"/>
				</defs>
				<clipPath id="SVGID_72_">
					<use xlink:href="#SVGID_71_"  style="overflow:visible;"/>
				</clipPath>
				<g class="st70">
					<g>
						<path class="st71" d="M383.9,271.6l38.6-33.6h0L383.9,271.6L383.9,271.6"/>
						<path class="st72" d="M384,271.6l38.5-33.6c0.3-0.3,0.6-0.5,1-0.6L385,271C384.6,271.1,384.3,271.3,384,271.6"/>
						<path class="st73" d="M385,271l38.6-33.6c0.7-0.3,1.4-0.4,2.1-0.4l-38.6,33.6C386.4,270.5,385.7,270.7,385,271"/>
						<path class="st74" d="M387.1,270.6l38.6-33.6h0.1l-38.6,33.6H387.1"/>
					</g>
				</g>
			</g>
		</g>
		<g>
			<g>
				<defs>
					<path id="SVGID_73_" d="M429.1,245.5l-38.6,33.6c1-0.9,1.5-2.1,1.5-3.4c0-0.2,0-0.3,0-0.5c-0.3-2.5-2.3-4.5-4.8-4.7l38.6-33.6
						c2.5,0.2,4.5,2.2,4.8,4.7c0,0.2,0,0.3,0,0.5C430.6,243.4,430,244.7,429.1,245.5z"/>
				</defs>
				<clipPath id="SVGID_74_">
					<use xlink:href="#SVGID_73_"  style="overflow:visible;"/>
				</clipPath>
				<g class="st75">
					<g>
						<path class="st74" d="M387.2,270.6l38.6-33.6c0.2,0,0.4,0,0.6,0.1l-38.6,33.6C387.6,270.6,387.4,270.6,387.2,270.6"/>
						<path class="st73" d="M387.8,270.6l38.6-33.6c0.7,0.1,1.4,0.4,2,0.9l-38.6,33.6C389.2,271.1,388.5,270.8,387.8,270.6"/>
						<path class="st72" d="M389.8,271.5l38.6-33.6c0.4,0.3,0.7,0.6,1,0.9l-38.6,33.6C390.5,272.1,390.2,271.8,389.8,271.5"/>
						<path class="st71" d="M390.8,272.4l38.6-33.6c0.3,0.3,0.5,0.7,0.7,1.1l-38.6,33.6C391.3,273.1,391.1,272.8,390.8,272.4"/>
						<path class="st76" d="M391.5,273.5l38.6-33.6c0.3,0.6,0.4,1.1,0.5,1.8c0,0.2,0,0.3,0,0.5c0,1.3-0.6,2.6-1.5,3.4l-38.5,33.6
							c1-0.9,1.5-2.1,1.5-3.4c0-0.2,0-0.3,0-0.5C392,274.7,391.8,274.1,391.5,273.5"/>
					</g>
				</g>
			</g>
		</g>
		<g>
			<g>
				<defs>
					<path id="SVGID_75_" d="M392,275.3c0.4-0.8,1.5-1.4,2.2-1.9l4.6-4l4.9-4.3l5-4.4l2.5-2.2l19.3-16.8L392,275.3z"/>
				</defs>
				<clipPath id="SVGID_76_">
					<use xlink:href="#SVGID_75_"  style="overflow:visible;"/>
				</clipPath>
				<g class="st77">
					<g>
						<path class="st63" d="M391.5,272.6l38.6-33.6c0.3,0.7,0.5,1.5,0.5,2.3c0,0.2,0,0.3,0,0.5L392,275.3c0-0.2,0-0.3,0-0.5
							C392,274,391.8,273.2,391.5,272.6"/>
					</g>
				</g>
			</g>
		</g>
		<g>
			<g>
				<defs>
					<path id="SVGID_77_" d="M423.9,236.2c0.6-0.2,1.2-0.3,1.9-0.2l-38.6,33.6c-0.6,0-1.3,0-1.9,0.2l3-2.6l3.2-2.8l3.3-2.9l3.4-3
						l3.4-3l3.3-2.9l3.2-2.8l3-2.6l1.5-1.3l1.6-1.4l1.6-1.4l1.6-1.4l0.8-0.7l0.8-0.7l0.8-0.7l0.8-0.7l1.6-1.4l0.8-0.6
						C423.4,236.6,423.7,236.4,423.9,236.2z"/>
				</defs>
				<clipPath id="SVGID_78_">
					<use xlink:href="#SVGID_77_"  style="overflow:visible;"/>
				</clipPath>
				<g class="st78">
					<g>
						<path class="st68" d="M385,270l38.6-33.6c0.7-0.3,1.4-0.4,2.1-0.4l-38.6,33.6C386.4,269.6,385.7,269.7,385,270"/>
						<path class="st79" d="M387.1,269.6l38.6-33.6h0.1l-38.6,33.6L387.1,269.6"/>
					</g>
				</g>
			</g>
		</g>
		<g>
			<g>
				<defs>
					<path id="SVGID_79_" d="M430.6,241.2c0,0.2,0,0.3,0,0.5L392,275.3c0-0.2,0-0.3,0-0.5s0-0.1,0-0.1l4.5-3.9l4.8-4.2l5-4.3l5-4.4
						l5-4.4l5-4.3l4.8-4.2l4.5-3.9L430.6,241.2z"/>
				</defs>
				<clipPath id="SVGID_80_">
					<use xlink:href="#SVGID_79_"  style="overflow:visible;"/>
				</clipPath>
				<g class="st80">
					<g>
						<path class="st63" d="M391.5,272.6l38.6-33.6c0.3,0.7,0.5,1.5,0.5,2.3c0,0.2,0,0.3,0,0.5L392,275.3c0-0.2,0-0.3,0-0.5
							C392,274,391.8,273.2,391.5,272.6"/>
					</g>
				</g>
			</g>
		</g>
		<polygon class="st81" points="307.5,254 346,220.4 417.2,225.6 378.6,259.3 		"/>
		<g>
			<g>
				<defs>
					<path id="SVGID_81_" d="M430.6,240.9c0,0,0,0.1,0,0.1L392,274.7v-0.1l9.3-8.1l5-4.3l5-4.4l5-4.4l5-4.3l4.8-4.2L430.6,240.9z"/>
				</defs>
				<clipPath id="SVGID_82_">
					<use xlink:href="#SVGID_81_"  style="overflow:visible;"/>
				</clipPath>
				<g class="st82">
					<g>
						<path class="st63" d="M391.5,272.6l38.6-33.6c0.3,0.7,0.5,1.5,0.5,2.3c0,0.2,0,0.3,0,0.5L392,275.3c0-0.2,0-0.3,0-0.5
							C392,274,391.8,273.2,391.5,272.6"/>
					</g>
				</g>
			</g>
		</g>
		<g>
			<g>
				<defs>
					<path id="SVGID_83_" d="M430.6,240.8c0,0,0,0.1,0,0.1L392,274.6c0,0,0-0.1,0-0.1L430.6,240.8z"/>
				</defs>
				<clipPath id="SVGID_84_">
					<use xlink:href="#SVGID_83_"  style="overflow:visible;"/>
				</clipPath>
				<g class="st83">
					<g>
						<path class="st63" d="M391.5,272.6l38.6-33.6c0.3,0.7,0.5,1.5,0.5,2.3c0,0.2,0,0.3,0,0.5L392,275.3c0-0.2,0-0.3,0-0.5
							C392,274,391.8,273.2,391.5,272.6"/>
					</g>
				</g>
			</g>
		</g>
		<g>
			<g>
				<defs>
					<path id="SVGID_85_" d="M427.6,236.5l-38.6,33.6c-0.6-0.3-1.2-0.5-1.8-0.5l38.6-33.6C426.4,236,427.1,236.2,427.6,236.5z"/>
				</defs>
				<clipPath id="SVGID_86_">
					<use xlink:href="#SVGID_85_"  style="overflow:visible;"/>
				</clipPath>
				<g class="st84">
					<g>
						<path class="st79" d="M387.2,269.6l38.6-33.6c0.2,0,0.4,0,0.6,0.1l-38.6,33.6C387.6,269.6,387.4,269.6,387.2,269.6"/>
						<path class="st68" d="M387.8,269.7l38.6-33.6c0.7,0.1,1.4,0.5,2,0.9l-38.6,33.6C389.2,270.1,388.6,269.8,387.8,269.7"/>
					</g>
				</g>
			</g>
		</g>
		<g>
			<g>
				<defs>
					<polygon id="SVGID_87_" points="427.6,236.5 427.7,236.5 389.1,270.1 389.1,270.1 					"/>
				</defs>
				<clipPath id="SVGID_88_">
					<use xlink:href="#SVGID_87_"  style="overflow:visible;"/>
				</clipPath>
				<g class="st85">
					<g>
						<path class="st68" d="M387.8,269.7l38.6-33.6c0.7,0.1,1.4,0.5,2,0.9l-38.6,33.6C389.2,270.1,388.6,269.8,387.8,269.7"/>
					</g>
				</g>
			</g>
		</g>
		<ellipse class="st86" cx="387.2" cy="275.4" rx="4.8" ry="4.9"/>
		<path id="LED" class="st87" d="M387.2,270.6c2.5,0.2,4.5,2.2,4.8,4.7c0,0.2,0,0.3,0,0.5c0,2.5-1.9,4.5-4.4,4.5c-0.1,0-0.3,0-0.4,0
			c-2.7-0.2-4.8-2.5-4.8-5.2c0-0.2,0-0.3,0-0.5C382.6,272.2,384.8,270.4,387.2,270.6C387.2,270.6,387.2,270.6,387.2,270.6z"/>
		<g>
			<g>
				<defs>
					<path id="SVGID_89_" d="M430.6,240.8L392,274.4c-0.2-1.8-1.3-3.4-2.9-4.3l4.5-3.9l4.8-4.2l5-4.3l5-4.4l5-4.4l5-4.3l4.8-4.2
						l4.5-3.9C429.4,237.3,430.4,239,430.6,240.8z"/>
				</defs>
				<clipPath id="SVGID_90_">
					<use xlink:href="#SVGID_89_"  style="overflow:visible;"/>
				</clipPath>
				<g class="st88">
					<g>
						<path class="st68" d="M387.8,269.7l38.6-33.6c0.7,0.1,1.4,0.5,2,0.9l-38.6,33.6C389.2,270.1,388.6,269.8,387.8,269.7"/>
						<path class="st67" d="M389.8,270.6l38.6-33.6c0.4,0.3,0.7,0.5,1,0.9l-38.6,33.6C390.5,271.1,390.2,270.8,389.8,270.6"/>
						<path class="st66" d="M390.8,271.5l38.6-33.6c0.3,0.3,0.5,0.7,0.7,1.1l-38.6,33.6C391.3,272.2,391.1,271.8,390.8,271.5"/>
						<path class="st63" d="M391.5,272.6l38.6-33.6c0.3,0.7,0.5,1.5,0.5,2.3c0,0.2,0,0.3,0,0.5L392,275.3c0-0.2,0-0.3,0-0.5
							C392,274,391.8,273.2,391.5,272.6"/>
					</g>
				</g>
			</g>
		</g>
		<polygon class="st89" points="307.9,85.6 346.4,51.9 346,220.4 307.5,254 		"/>
		<polygon class="st90" points="307.9,85.6 346.4,51.9 417.6,57.2 379,90.8 		"/>
		<polygon class="st91" points="379,90.8 417.6,57.2 417.2,225.6 378.6,259.3 		"/>
		<path class="st92" d="M398.3,63.3c6.5,0.6,11.4,6,11.5,12.5l-0.6,223.6c0.1,5.9-4.6,10.7-10.5,10.8c-0.3,0-0.7,0-1,0L288.1,302
			c-6.5-0.6-11.4-6-11.5-12.5l0.6-223.6c-0.1-5.9,4.6-10.7,10.5-10.8c0.4,0,0.7,0,1,0L398.3,63.3z M378.6,259.3L379,90.8l-71.1-5.3
			L307.5,254L378.6,259.3 M392,275.8c0-0.2,0-0.3,0-0.5c0-0.2,0-0.3,0-0.5c0-2.7-2.1-4.9-4.8-5.2c-2.4-0.2-4.6,1.6-4.8,4
			c0,0.2,0,0.3,0,0.5c0,0.2,0,0.3,0,0.5c0,0.2,0,0.3,0,0.5c0,2.7,2.1,5,4.8,5.2c2.4,0.2,4.6-1.6,4.8-4
			C392,276.1,392,275.9,392,275.8"/>
		<path class="st93" d="M387.2,269.6c2.7,0.2,4.8,2.5,4.8,5.2c0,0.2,0,0.3,0,0.5c-0.3-2.5-2.3-4.5-4.8-4.7c-2.4-0.2-4.6,1.6-4.8,4
			c0,0,0,0,0,0c0-0.2,0-0.3,0-0.5c0-2.4,1.9-4.5,4.4-4.5C387,269.6,387.1,269.6,387.2,269.6z"/>
		<g>
			<g>
				<defs>
					<path id="SVGID_91_" d="M280.8,57.7L319.4,24c2.2-1.9,5-2.8,7.9-2.6l-38.6,33.6C285.9,54.9,283,55.8,280.8,57.7z"/>
				</defs>
				<clipPath id="SVGID_92_">
					<use xlink:href="#SVGID_91_"  style="overflow:visible;"/>
				</clipPath>
				<g class="st94">
					<g>
						<path class="st57" d="M280.8,57.7L319.4,24l0.1-0.1l-38.6,33.6L280.8,57.7"/>
						<path class="st58" d="M280.9,57.6l38.6-33.6c0.7-0.6,1.6-1.2,2.5-1.6L283.4,56C282.5,56.4,281.7,56.9,280.9,57.6"/>
						<path class="st59" d="M283.4,56L322,22.4c1.6-0.7,3.3-1,5-0.9l-38.5,33.6C286.8,55,285.1,55.3,283.4,56"/>
						<path class="st60" d="M288.5,55.1l38.6-33.6h0.3l-38.6,33.6H288.5"/>
					</g>
				</g>
			</g>
		</g>
		<polygon class="st95" points="379,90.8 378.6,259.3 307.5,254 307.9,85.6 		"/>
		<polygon class="st81" points="288.7,55.1 327.3,21.5 436.9,29.6 398.3,63.2 		"/>
		<polygon class="st89" points="409.8,75.7 448.4,42 447.8,265.7 409.3,299.3 		"/>
		<g>
			<g>
				<defs>
					<path id="SVGID_93_" d="M398.3,63.3l38.6-33.6c6.5,0.6,11.4,6,11.5,12.5l-38.6,33.6C409.7,69.3,404.8,63.9,398.3,63.3z"/>
				</defs>
				<clipPath id="SVGID_94_">
					<use xlink:href="#SVGID_93_"  style="overflow:visible;"/>
				</clipPath>
				<g class="st96">
					<g>
						<path class="st60" d="M398.3,63.3l38.6-33.6c0.5,0,0.9,0.1,1.3,0.2l-38.6,33.6C399.2,63.4,398.8,63.3,398.3,63.3"/>
						<path class="st59" d="M399.7,63.4l38.6-33.6c1.8,0.3,3.4,1.1,4.9,2.2l-38.6,33.6C403.1,64.5,401.4,63.7,399.7,63.4"/>
						<path class="st58" d="M404.6,65.5l38.6-33.6c0.9,0.6,1.6,1.3,2.3,2.2l-38.6,33.6C406.2,66.9,405.4,66.2,404.6,65.5"/>
						<path class="st57" d="M406.9,67.7l38.6-33.6c0.7,0.8,1.3,1.7,1.7,2.6l-38.6,33.6C408.1,69.4,407.5,68.5,406.9,67.7"/>
						<path class="st49" d="M408.6,70.3l38.6-33.6c0.8,1.7,1.2,3.5,1.3,5.4l-38.6,33.6C409.8,73.8,409.4,72,408.6,70.3"/>
					</g>
				</g>
			</g>
		</g>
	</g>
</g>
<text transform="matrix(0.9383 5.989229e-02 -5.989229e-02 0.9982 21.3698 46.9301)" class="st97 st98 st99">&gt; Console.log(”Hello </text>
<text transform="matrix(0.9383 5.989229e-02 -5.989229e-02 0.9982 187.6378 57.543)" class="st97 st98 st99">W</text>
<text transform="matrix(0.9383 5.989229e-02 -5.989229e-02 0.9982 203.4767 58.554)" class="st97 st98 st99">orld”)</text>
</svg>
