<svg id="图层_1" data-name="图层 1" xmlns="http://www.w3.org/2000/svg" width="424" height="288.41" viewBox="0 0 424 288.41">
  <path d="M373.7,63H141.75A49.9,49.9,0,0,0,92,112.75v79.14c0,1.35.07,2.68.18,4l-.18-.12v99.67l66.92-53.81H373.7a49.9,49.9,0,0,0,49.75-49.75V112.75A49.9,49.9,0,0,0,373.7,63Z" transform="translate(-92 -63)" style="fill: #63a1b7"/>
  <path d="M388,248.1H493.39c12.43,0,22.61,10,22.61,22.11v35.17c0,.6,0,1.19-.08,1.78l.08-.05v44.3l-30.42-23.92H388c-12.43,0-22.61-9.95-22.61-22.11V270.21C365.34,258.05,375.52,248.1,388,248.1Z" transform="translate(-92 -63)" style="fill: #eae8ac"/>
  <g id="Chat">
    <rect id="Ch3" x="58.11" y="19.37" width="114.79" height="22.96" rx="4" style="fill: #fff"/>
    <rect id="Ch2" x="58.11" y="50.94" width="62.9" height="22.96" rx="4" style="fill: #fff"/>
    <rect id="Ch1" x="58.11" y="82.5" width="62.9" height="22.96" rx="4" style="fill: #fff"/>
  </g>
  <g id="Chat-2" data-name="Chat">
    <rect id="Ch3-2" data-name="Ch3" x="283.38" y="198.66" width="54.53" height="11.88" rx="2.76" style="fill: #fff"/>
    <rect id="Ch2-2" data-name="Ch2" x="283.38" y="214.99" width="29.88" height="11.88" rx="2.76" style="fill: #fff"/>
    <rect id="Ch1-2" data-name="Ch1" x="283.38" y="231.33" width="29.88" height="11.88" rx="2.76" style="fill: #fff"/>
  </g>
</svg>
